%TF.GenerationSoftware,KiCad,Pcbnew,5.1.6-c6e7f7d~87~ubuntu20.04.1*%
%TF.CreationDate,2020-10-18T19:27:48-04:00*%
%TF.ProjectId,noisebells_panel,6e6f6973-6562-4656-9c6c-735f70616e65,rev?*%
%TF.SameCoordinates,Original*%
%TF.FileFunction,Legend,Bot*%
%TF.FilePolarity,Positive*%
%FSLAX46Y46*%
G04 Gerber Fmt 4.6, Leading zero omitted, Abs format (unit mm)*
G04 Created by KiCad (PCBNEW 5.1.6-c6e7f7d~87~ubuntu20.04.1) date 2020-10-18 19:27:48*
%MOMM*%
%LPD*%
G01*
G04 APERTURE LIST*
%ADD10C,0.150000*%
G04 APERTURE END LIST*
D10*
X104666666Y-191802380D02*
X104666666Y-190802380D01*
X104285714Y-190802380D01*
X104190476Y-190850000D01*
X104142857Y-190897619D01*
X104095238Y-190992857D01*
X104095238Y-191135714D01*
X104142857Y-191230952D01*
X104190476Y-191278571D01*
X104285714Y-191326190D01*
X104666666Y-191326190D01*
X103238095Y-191802380D02*
X103238095Y-191278571D01*
X103285714Y-191183333D01*
X103380952Y-191135714D01*
X103571428Y-191135714D01*
X103666666Y-191183333D01*
X103238095Y-191754761D02*
X103333333Y-191802380D01*
X103571428Y-191802380D01*
X103666666Y-191754761D01*
X103714285Y-191659523D01*
X103714285Y-191564285D01*
X103666666Y-191469047D01*
X103571428Y-191421428D01*
X103333333Y-191421428D01*
X103238095Y-191373809D01*
X102761904Y-191135714D02*
X102761904Y-191802380D01*
X102761904Y-191230952D02*
X102714285Y-191183333D01*
X102619047Y-191135714D01*
X102476190Y-191135714D01*
X102380952Y-191183333D01*
X102333333Y-191278571D01*
X102333333Y-191802380D01*
X101476190Y-191754761D02*
X101571428Y-191802380D01*
X101761904Y-191802380D01*
X101857142Y-191754761D01*
X101904761Y-191659523D01*
X101904761Y-191278571D01*
X101857142Y-191183333D01*
X101761904Y-191135714D01*
X101571428Y-191135714D01*
X101476190Y-191183333D01*
X101428571Y-191278571D01*
X101428571Y-191373809D01*
X101904761Y-191469047D01*
X100857142Y-191802380D02*
X100952380Y-191754761D01*
X101000000Y-191659523D01*
X101000000Y-190802380D01*
X99285714Y-191802380D02*
X99285714Y-190802380D01*
X99285714Y-191754761D02*
X99380952Y-191802380D01*
X99571428Y-191802380D01*
X99666666Y-191754761D01*
X99714285Y-191707142D01*
X99761904Y-191611904D01*
X99761904Y-191326190D01*
X99714285Y-191230952D01*
X99666666Y-191183333D01*
X99571428Y-191135714D01*
X99380952Y-191135714D01*
X99285714Y-191183333D01*
X98428571Y-191754761D02*
X98523809Y-191802380D01*
X98714285Y-191802380D01*
X98809523Y-191754761D01*
X98857142Y-191659523D01*
X98857142Y-191278571D01*
X98809523Y-191183333D01*
X98714285Y-191135714D01*
X98523809Y-191135714D01*
X98428571Y-191183333D01*
X98380952Y-191278571D01*
X98380952Y-191373809D01*
X98857142Y-191469047D01*
X98000000Y-191754761D02*
X97904761Y-191802380D01*
X97714285Y-191802380D01*
X97619047Y-191754761D01*
X97571428Y-191659523D01*
X97571428Y-191611904D01*
X97619047Y-191516666D01*
X97714285Y-191469047D01*
X97857142Y-191469047D01*
X97952380Y-191421428D01*
X98000000Y-191326190D01*
X98000000Y-191278571D01*
X97952380Y-191183333D01*
X97857142Y-191135714D01*
X97714285Y-191135714D01*
X97619047Y-191183333D01*
X97142857Y-191802380D02*
X97142857Y-191135714D01*
X97142857Y-190802380D02*
X97190476Y-190850000D01*
X97142857Y-190897619D01*
X97095238Y-190850000D01*
X97142857Y-190802380D01*
X97142857Y-190897619D01*
X96238095Y-191135714D02*
X96238095Y-191945238D01*
X96285714Y-192040476D01*
X96333333Y-192088095D01*
X96428571Y-192135714D01*
X96571428Y-192135714D01*
X96666666Y-192088095D01*
X96238095Y-191754761D02*
X96333333Y-191802380D01*
X96523809Y-191802380D01*
X96619047Y-191754761D01*
X96666666Y-191707142D01*
X96714285Y-191611904D01*
X96714285Y-191326190D01*
X96666666Y-191230952D01*
X96619047Y-191183333D01*
X96523809Y-191135714D01*
X96333333Y-191135714D01*
X96238095Y-191183333D01*
X95761904Y-191135714D02*
X95761904Y-191802380D01*
X95761904Y-191230952D02*
X95714285Y-191183333D01*
X95619047Y-191135714D01*
X95476190Y-191135714D01*
X95380952Y-191183333D01*
X95333333Y-191278571D01*
X95333333Y-191802380D01*
X103928571Y-193452380D02*
X104261904Y-192976190D01*
X104500000Y-193452380D02*
X104500000Y-192452380D01*
X104119047Y-192452380D01*
X104023809Y-192500000D01*
X103976190Y-192547619D01*
X103928571Y-192642857D01*
X103928571Y-192785714D01*
X103976190Y-192880952D01*
X104023809Y-192928571D01*
X104119047Y-192976190D01*
X104500000Y-192976190D01*
X103500000Y-193452380D02*
X103500000Y-192785714D01*
X103500000Y-192452380D02*
X103547619Y-192500000D01*
X103500000Y-192547619D01*
X103452380Y-192500000D01*
X103500000Y-192452380D01*
X103500000Y-192547619D01*
X102595238Y-193404761D02*
X102690476Y-193452380D01*
X102880952Y-193452380D01*
X102976190Y-193404761D01*
X103023809Y-193357142D01*
X103071428Y-193261904D01*
X103071428Y-192976190D01*
X103023809Y-192880952D01*
X102976190Y-192833333D01*
X102880952Y-192785714D01*
X102690476Y-192785714D01*
X102595238Y-192833333D01*
X102166666Y-193452380D02*
X102166666Y-192452380D01*
X101738095Y-193452380D02*
X101738095Y-192928571D01*
X101785714Y-192833333D01*
X101880952Y-192785714D01*
X102023809Y-192785714D01*
X102119047Y-192833333D01*
X102166666Y-192880952D01*
X100500000Y-193452380D02*
X100500000Y-192452380D01*
X100500000Y-192928571D02*
X99928571Y-192928571D01*
X99928571Y-193452380D02*
X99928571Y-192452380D01*
X99309523Y-193452380D02*
X99404761Y-193404761D01*
X99452380Y-193357142D01*
X99500000Y-193261904D01*
X99500000Y-192976190D01*
X99452380Y-192880952D01*
X99404761Y-192833333D01*
X99309523Y-192785714D01*
X99166666Y-192785714D01*
X99071428Y-192833333D01*
X99023809Y-192880952D01*
X98976190Y-192976190D01*
X98976190Y-193261904D01*
X99023809Y-193357142D01*
X99071428Y-193404761D01*
X99166666Y-193452380D01*
X99309523Y-193452380D01*
X98404761Y-193452380D02*
X98500000Y-193404761D01*
X98547619Y-193309523D01*
X98547619Y-192452380D01*
X98023809Y-193452380D02*
X98023809Y-192785714D01*
X98023809Y-192880952D02*
X97976190Y-192833333D01*
X97880952Y-192785714D01*
X97738095Y-192785714D01*
X97642857Y-192833333D01*
X97595238Y-192928571D01*
X97595238Y-193452380D01*
X97595238Y-192928571D02*
X97547619Y-192833333D01*
X97452380Y-192785714D01*
X97309523Y-192785714D01*
X97214285Y-192833333D01*
X97166666Y-192928571D01*
X97166666Y-193452380D01*
X96309523Y-193404761D02*
X96404761Y-193452380D01*
X96595238Y-193452380D01*
X96690476Y-193404761D01*
X96738095Y-193309523D01*
X96738095Y-192928571D01*
X96690476Y-192833333D01*
X96595238Y-192785714D01*
X96404761Y-192785714D01*
X96309523Y-192833333D01*
X96261904Y-192928571D01*
X96261904Y-193023809D01*
X96738095Y-193119047D01*
X95880952Y-193404761D02*
X95785714Y-193452380D01*
X95595238Y-193452380D01*
X95500000Y-193404761D01*
X95452380Y-193309523D01*
X95452380Y-193261904D01*
X95500000Y-193166666D01*
X95595238Y-193119047D01*
X95738095Y-193119047D01*
X95833333Y-193071428D01*
X95880952Y-192976190D01*
X95880952Y-192928571D01*
X95833333Y-192833333D01*
X95738095Y-192785714D01*
X95595238Y-192785714D01*
X95500000Y-192833333D01*
X103452380Y-195054761D02*
X103309523Y-195102380D01*
X103071428Y-195102380D01*
X102976190Y-195054761D01*
X102928571Y-195007142D01*
X102880952Y-194911904D01*
X102880952Y-194816666D01*
X102928571Y-194721428D01*
X102976190Y-194673809D01*
X103071428Y-194626190D01*
X103261904Y-194578571D01*
X103357142Y-194530952D01*
X103404761Y-194483333D01*
X103452380Y-194388095D01*
X103452380Y-194292857D01*
X103404761Y-194197619D01*
X103357142Y-194150000D01*
X103261904Y-194102380D01*
X103023809Y-194102380D01*
X102880952Y-194150000D01*
X102071428Y-195054761D02*
X102166666Y-195102380D01*
X102357142Y-195102380D01*
X102452380Y-195054761D01*
X102500000Y-194959523D01*
X102500000Y-194578571D01*
X102452380Y-194483333D01*
X102357142Y-194435714D01*
X102166666Y-194435714D01*
X102071428Y-194483333D01*
X102023809Y-194578571D01*
X102023809Y-194673809D01*
X102500000Y-194769047D01*
X101595238Y-194435714D02*
X101595238Y-195435714D01*
X101595238Y-194483333D02*
X101500000Y-194435714D01*
X101309523Y-194435714D01*
X101214285Y-194483333D01*
X101166666Y-194530952D01*
X101119047Y-194626190D01*
X101119047Y-194911904D01*
X101166666Y-195007142D01*
X101214285Y-195054761D01*
X101309523Y-195102380D01*
X101500000Y-195102380D01*
X101595238Y-195054761D01*
X99976190Y-194197619D02*
X99928571Y-194150000D01*
X99833333Y-194102380D01*
X99595238Y-194102380D01*
X99500000Y-194150000D01*
X99452380Y-194197619D01*
X99404761Y-194292857D01*
X99404761Y-194388095D01*
X99452380Y-194530952D01*
X100023809Y-195102380D01*
X99404761Y-195102380D01*
X98785714Y-194102380D02*
X98690476Y-194102380D01*
X98595238Y-194150000D01*
X98547619Y-194197619D01*
X98500000Y-194292857D01*
X98452380Y-194483333D01*
X98452380Y-194721428D01*
X98500000Y-194911904D01*
X98547619Y-195007142D01*
X98595238Y-195054761D01*
X98690476Y-195102380D01*
X98785714Y-195102380D01*
X98880952Y-195054761D01*
X98928571Y-195007142D01*
X98976190Y-194911904D01*
X99023809Y-194721428D01*
X99023809Y-194483333D01*
X98976190Y-194292857D01*
X98928571Y-194197619D01*
X98880952Y-194150000D01*
X98785714Y-194102380D01*
X98071428Y-194197619D02*
X98023809Y-194150000D01*
X97928571Y-194102380D01*
X97690476Y-194102380D01*
X97595238Y-194150000D01*
X97547619Y-194197619D01*
X97500000Y-194292857D01*
X97500000Y-194388095D01*
X97547619Y-194530952D01*
X98119047Y-195102380D01*
X97500000Y-195102380D01*
X96880952Y-194102380D02*
X96785714Y-194102380D01*
X96690476Y-194150000D01*
X96642857Y-194197619D01*
X96595238Y-194292857D01*
X96547619Y-194483333D01*
X96547619Y-194721428D01*
X96595238Y-194911904D01*
X96642857Y-195007142D01*
X96690476Y-195054761D01*
X96785714Y-195102380D01*
X96880952Y-195102380D01*
X96976190Y-195054761D01*
X97023809Y-195007142D01*
X97071428Y-194911904D01*
X97119047Y-194721428D01*
X97119047Y-194483333D01*
X97071428Y-194292857D01*
X97023809Y-194197619D01*
X96976190Y-194150000D01*
X96880952Y-194102380D01*
X104619047Y-187452380D02*
X104619047Y-188166666D01*
X104666666Y-188309523D01*
X104761904Y-188404761D01*
X104904761Y-188452380D01*
X105000000Y-188452380D01*
X103666666Y-188452380D02*
X104142857Y-188452380D01*
X104142857Y-187452380D01*
X102761904Y-188357142D02*
X102809523Y-188404761D01*
X102952380Y-188452380D01*
X103047619Y-188452380D01*
X103190476Y-188404761D01*
X103285714Y-188309523D01*
X103333333Y-188214285D01*
X103380952Y-188023809D01*
X103380952Y-187880952D01*
X103333333Y-187690476D01*
X103285714Y-187595238D01*
X103190476Y-187500000D01*
X103047619Y-187452380D01*
X102952380Y-187452380D01*
X102809523Y-187500000D01*
X102761904Y-187547619D01*
X102047619Y-187452380D02*
X102047619Y-188166666D01*
X102095238Y-188309523D01*
X102190476Y-188404761D01*
X102333333Y-188452380D01*
X102428571Y-188452380D01*
X101095238Y-188452380D02*
X101571428Y-188452380D01*
X101571428Y-187452380D01*
X100190476Y-188357142D02*
X100238095Y-188404761D01*
X100380952Y-188452380D01*
X100476190Y-188452380D01*
X100619047Y-188404761D01*
X100714285Y-188309523D01*
X100761904Y-188214285D01*
X100809523Y-188023809D01*
X100809523Y-187880952D01*
X100761904Y-187690476D01*
X100714285Y-187595238D01*
X100619047Y-187500000D01*
X100476190Y-187452380D01*
X100380952Y-187452380D01*
X100238095Y-187500000D01*
X100190476Y-187547619D01*
X99476190Y-187452380D02*
X99476190Y-188166666D01*
X99523809Y-188309523D01*
X99619047Y-188404761D01*
X99761904Y-188452380D01*
X99857142Y-188452380D01*
X98523809Y-188452380D02*
X99000000Y-188452380D01*
X99000000Y-187452380D01*
X97619047Y-188357142D02*
X97666666Y-188404761D01*
X97809523Y-188452380D01*
X97904761Y-188452380D01*
X98047619Y-188404761D01*
X98142857Y-188309523D01*
X98190476Y-188214285D01*
X98238095Y-188023809D01*
X98238095Y-187880952D01*
X98190476Y-187690476D01*
X98142857Y-187595238D01*
X98047619Y-187500000D01*
X97904761Y-187452380D01*
X97809523Y-187452380D01*
X97666666Y-187500000D01*
X97619047Y-187547619D01*
X96904761Y-187452380D02*
X96904761Y-188166666D01*
X96952380Y-188309523D01*
X97047619Y-188404761D01*
X97190476Y-188452380D01*
X97285714Y-188452380D01*
X95952380Y-188452380D02*
X96428571Y-188452380D01*
X96428571Y-187452380D01*
X95047619Y-188357142D02*
X95095238Y-188404761D01*
X95238095Y-188452380D01*
X95333333Y-188452380D01*
X95476190Y-188404761D01*
X95571428Y-188309523D01*
X95619047Y-188214285D01*
X95666666Y-188023809D01*
X95666666Y-187880952D01*
X95619047Y-187690476D01*
X95571428Y-187595238D01*
X95476190Y-187500000D01*
X95333333Y-187452380D01*
X95238095Y-187452380D01*
X95095238Y-187500000D01*
X95047619Y-187547619D01*
M02*
