M48
; DRILL file {KiCad 5.1.6-c6e7f7d~87~ubuntu20.04.1} date Wed Nov  4 13:05:32 2020
; FORMAT={-:-/ absolute / inch / decimal}
; #@! TF.CreationDate,2020-11-04T13:05:32-05:00
; #@! TF.GenerationSoftware,Kicad,Pcbnew,5.1.6-c6e7f7d~87~ubuntu20.04.1
; #@! TF.FileFunction,Plated,1,2,PTH
FMAT,2
INCH
T1C0.0315
T2C0.0394
T3C0.0400
T4C0.0433
T5C0.0709
T6C0.0827
%
G90
G05
T1
X9.4094Y-4.7402
X9.6063Y-4.7402
X9.0157Y-7.078
X9.0157Y-7.378
X9.4094Y-3.3622
X9.6063Y-3.3622
X8.5827Y-6.6299
X8.6811Y-6.6299
X7.2835Y-7.811
X7.3835Y-7.811
X7.4835Y-7.811
X9.2126Y-6.6693
X9.2913Y-6.6693
X6.6535Y-3.3622
X6.8504Y-3.3622
X9.6606Y-6.6299
X9.9606Y-6.6299
X7.0079Y-6.7874
X7.0079Y-7.0874
X7.0079Y-6.6299
X7.3079Y-6.6299
X8.8189Y-7.8504
X8.9189Y-7.8504
X9.0189Y-7.8504
X9.7244Y-7.811
X9.8228Y-7.811
X6.8063Y-7.6142
X7.1063Y-7.6142
X6.6535Y-4.7402
X6.8504Y-4.7402
X8.5827Y-5.7638
X8.6811Y-5.7638
X9.2323Y-7.8898
X9.5323Y-7.8898
X9.0157Y-6.3299
X9.0157Y-6.6299
X8.3465Y-5.0157
X8.3465Y-5.1157
X8.3465Y-5.2157
X8.3465Y-5.3157
X8.3465Y-5.4157
X8.3465Y-5.5157
X8.3465Y-5.6157
X8.6465Y-5.0157
X8.6465Y-5.1157
X8.6465Y-5.2157
X8.6465Y-5.3157
X8.6465Y-5.4157
X8.6465Y-5.5157
X8.6465Y-5.6157
X7.7165Y-6.6299
X7.7953Y-6.6299
X7.5197Y-6.3299
X7.5197Y-6.6299
X9.9213Y-6.7874
X9.9213Y-7.0874
X8.5827Y-4.8583
X8.6811Y-4.8583
X8.3465Y-6.748
X8.3465Y-6.848
X8.3465Y-6.948
X8.3465Y-7.048
X8.3465Y-7.148
X8.3465Y-7.248
X8.3465Y-7.348
X8.6465Y-6.748
X8.6465Y-6.848
X8.6465Y-6.948
X8.6465Y-7.048
X8.6465Y-7.148
X8.6465Y-7.248
X8.6465Y-7.348
X9.2323Y-7.6929
X9.5323Y-7.6929
X7.2047Y-6.2953
X7.2047Y-6.3937
X6.8063Y-7.8504
X7.1063Y-7.8504
X6.5354Y-5.1732
X6.6142Y-5.1732
X9.8031Y-6.2953
X9.8031Y-6.3937
X9.4882Y-6.3299
X9.4882Y-6.6299
X8.0315Y-3.3622
X8.2283Y-3.3622
X7.9921Y-6.3299
X7.9921Y-6.6299
X7.9921Y-7.078
X7.9921Y-7.378
X6.4764Y-7.811
X6.5748Y-7.811
X8.3465Y-5.8819
X8.3465Y-5.9819
X8.3465Y-6.0819
X8.3465Y-6.1819
X8.3465Y-6.2819
X8.3465Y-6.3819
X8.3465Y-6.4819
X8.6465Y-5.8819
X8.6465Y-5.9819
X8.6465Y-6.0819
X8.6465Y-6.1819
X8.6465Y-6.2819
X8.6465Y-6.3819
X8.6465Y-6.4819
X8.0315Y-4.7402
X8.2283Y-4.7402
T2
X9.4291Y-3.1654
X9.5276Y-3.1654
X9.626Y-3.1654
X9.4291Y-4.5433
X9.5276Y-4.5433
X9.626Y-4.5433
X6.6732Y-3.1693
X6.7717Y-3.1693
X6.8701Y-3.1693
X8.0512Y-3.1654
X8.1496Y-3.1654
X8.248Y-3.1654
X7.3622Y-7.2992
X7.4606Y-7.2992
X7.5591Y-7.2992
X6.6732Y-4.5433
X6.7717Y-4.5433
X6.8701Y-4.5433
X8.0512Y-4.5433
X8.1496Y-4.5433
X8.248Y-4.5433
X9.4291Y-7.2992
X9.5276Y-7.2992
X9.626Y-7.2992
X7.9465Y-8.126
X8.0465Y-8.126
X8.1465Y-8.126
X8.2465Y-8.126
X8.3465Y-8.126
T3
X6.5142Y-5.9937
X6.5142Y-6.0937
X6.5142Y-6.1937
X6.5142Y-6.2937
X6.5142Y-6.3937
X6.6142Y-5.9937
X6.6142Y-6.0937
X6.6142Y-6.1937
X6.6142Y-6.2937
X6.6142Y-6.3937
T4
X6.4082Y-5.5324
X6.7082Y-5.5324
T5
X9.3386Y-7.0039
X9.7165Y-7.0039
X9.3386Y-2.8701
X9.7165Y-2.8701
X9.3386Y-4.248
X9.7165Y-4.248
X6.5827Y-2.874
X6.9606Y-2.874
X7.9606Y-2.8701
X8.3386Y-2.8701
X7.2717Y-7.0039
X7.6496Y-7.0039
X6.5827Y-4.248
X6.9606Y-4.248
X7.9606Y-4.248
X8.3386Y-4.248
T6
X7.3656Y-5.6417
X7.3656Y-5.8268
X7.3656Y-6.0118
X7.5557Y-5.6417
X7.5557Y-5.8268
X7.5557Y-6.0118
X9.4325Y-5.6417
X9.4325Y-5.8268
X9.4325Y-6.0118
X9.6226Y-5.6417
X9.6226Y-5.8268
X9.6226Y-6.0118
T0
M30
