%TF.GenerationSoftware,KiCad,Pcbnew,5.1.6-c6e7f7d~87~ubuntu20.04.1*%
%TF.CreationDate,2020-10-18T19:27:48-04:00*%
%TF.ProjectId,noisebells_panel,6e6f6973-6562-4656-9c6c-735f70616e65,rev?*%
%TF.SameCoordinates,Original*%
%TF.FileFunction,Copper,L1,Top*%
%TF.FilePolarity,Positive*%
%FSLAX46Y46*%
G04 Gerber Fmt 4.6, Leading zero omitted, Abs format (unit mm)*
G04 Created by KiCad (PCBNEW 5.1.6-c6e7f7d~87~ubuntu20.04.1) date 2020-10-18 19:27:48*
%MOMM*%
%LPD*%
G01*
G04 APERTURE LIST*
%TA.AperFunction,ComponentPad*%
%ADD10O,6.800000X4.000000*%
%TD*%
%TA.AperFunction,ComponentPad*%
%ADD11C,9.000000*%
%TD*%
%TA.AperFunction,ComponentPad*%
%ADD12C,14.000000*%
%TD*%
%TA.AperFunction,Conductor*%
%ADD13C,0.254000*%
%TD*%
G04 APERTURE END LIST*
D10*
%TO.P,REF\u002A\u002A,1*%
%TO.N,N/C*%
X145600000Y-197000000D03*
X145600000Y-3000000D03*
%TD*%
%TO.P,REF\u002A\u002A,1*%
%TO.N,N/C*%
X54400000Y-3000000D03*
X54400000Y-197000000D03*
%TD*%
D11*
%TO.P,REF\u002A\u002A,1*%
%TO.N,GND*%
X65000000Y-30000000D03*
%TD*%
%TO.P,REF\u002A\u002A,1*%
%TO.N,GND*%
X117500000Y-105000000D03*
%TD*%
%TO.P,REF\u002A\u002A,1*%
%TO.N,GND*%
X65000000Y-105000000D03*
%TD*%
%TO.P,REF\u002A\u002A,1*%
%TO.N,GND*%
X117500000Y-135000000D03*
%TD*%
%TO.P,REF\u002A\u002A,1*%
%TO.N,GND*%
X65000000Y-135000000D03*
%TD*%
%TO.P,REF\u002A\u002A,1*%
%TO.N,GND*%
X65000000Y-65000000D03*
%TD*%
%TO.P,REF\u002A\u002A,1*%
%TO.N,GND*%
X100000000Y-65000000D03*
%TD*%
%TO.P,REF\u002A\u002A,1*%
%TO.N,GND*%
X135000000Y-65000000D03*
%TD*%
%TO.P,REF\u002A\u002A,1*%
%TO.N,GND*%
X135000000Y-30000000D03*
%TD*%
%TO.P,REF\u002A\u002A,1*%
%TO.N,GND*%
X100000000Y-30000000D03*
%TD*%
D12*
%TO.P,REF\u002A\u002A,1*%
%TO.N,GND*%
X137500000Y-175000000D03*
%TD*%
%TO.P,REF\u002A\u002A,1*%
%TO.N,GND*%
X112500000Y-175000000D03*
%TD*%
%TO.P,REF\u002A\u002A,1*%
%TO.N,GND*%
X87500000Y-175000000D03*
%TD*%
%TO.P,REF\u002A\u002A,1*%
%TO.N,GND*%
X62500000Y-175000000D03*
%TD*%
D13*
%TO.N,GND*%
G36*
X142728989Y-798477D02*
G01*
X142327759Y-1127759D01*
X141998477Y-1528989D01*
X141753799Y-1986750D01*
X141603127Y-2483450D01*
X141552251Y-3000000D01*
X141603127Y-3516550D01*
X141753799Y-4013250D01*
X141998477Y-4471011D01*
X142327759Y-4872241D01*
X142728989Y-5201523D01*
X143186750Y-5446201D01*
X143683450Y-5596873D01*
X144070558Y-5635000D01*
X147129442Y-5635000D01*
X147516550Y-5596873D01*
X148013250Y-5446201D01*
X148471011Y-5201523D01*
X148872241Y-4872241D01*
X149201523Y-4471011D01*
X149340000Y-4211938D01*
X149340001Y-195788063D01*
X149201523Y-195528989D01*
X148872241Y-195127759D01*
X148471011Y-194798477D01*
X148013250Y-194553799D01*
X147516550Y-194403127D01*
X147129442Y-194365000D01*
X144070558Y-194365000D01*
X143683450Y-194403127D01*
X143186750Y-194553799D01*
X142728989Y-194798477D01*
X142327759Y-195127759D01*
X141998477Y-195528989D01*
X141753799Y-195986750D01*
X141603127Y-196483450D01*
X141552251Y-197000000D01*
X141603127Y-197516550D01*
X141753799Y-198013250D01*
X141998477Y-198471011D01*
X142327759Y-198872241D01*
X142728989Y-199201523D01*
X142988062Y-199340000D01*
X57011938Y-199340000D01*
X57271011Y-199201523D01*
X57672241Y-198872241D01*
X58001523Y-198471011D01*
X58246201Y-198013250D01*
X58396873Y-197516550D01*
X58447749Y-197000000D01*
X58396873Y-196483450D01*
X58246201Y-195986750D01*
X58001523Y-195528989D01*
X57672241Y-195127759D01*
X57271011Y-194798477D01*
X56813250Y-194553799D01*
X56316550Y-194403127D01*
X55929442Y-194365000D01*
X52870558Y-194365000D01*
X52483450Y-194403127D01*
X51986750Y-194553799D01*
X51528989Y-194798477D01*
X51127759Y-195127759D01*
X50798477Y-195528989D01*
X50660000Y-195788062D01*
X50660000Y-180401674D01*
X57277932Y-180401674D01*
X58093908Y-181280530D01*
X59403840Y-182019437D01*
X60832756Y-182488591D01*
X62325743Y-182669963D01*
X63825428Y-182556583D01*
X65274176Y-182152807D01*
X66616314Y-181474153D01*
X66906092Y-181280530D01*
X67722068Y-180401674D01*
X82277932Y-180401674D01*
X83093908Y-181280530D01*
X84403840Y-182019437D01*
X85832756Y-182488591D01*
X87325743Y-182669963D01*
X88825428Y-182556583D01*
X90274176Y-182152807D01*
X91616314Y-181474153D01*
X91906092Y-181280530D01*
X92722068Y-180401674D01*
X107277932Y-180401674D01*
X108093908Y-181280530D01*
X109403840Y-182019437D01*
X110832756Y-182488591D01*
X112325743Y-182669963D01*
X113825428Y-182556583D01*
X115274176Y-182152807D01*
X116616314Y-181474153D01*
X116906092Y-181280530D01*
X117722068Y-180401674D01*
X132277932Y-180401674D01*
X133093908Y-181280530D01*
X134403840Y-182019437D01*
X135832756Y-182488591D01*
X137325743Y-182669963D01*
X138825428Y-182556583D01*
X140274176Y-182152807D01*
X141616314Y-181474153D01*
X141906092Y-181280530D01*
X142722068Y-180401674D01*
X137500000Y-175179605D01*
X132277932Y-180401674D01*
X117722068Y-180401674D01*
X112500000Y-175179605D01*
X107277932Y-180401674D01*
X92722068Y-180401674D01*
X87500000Y-175179605D01*
X82277932Y-180401674D01*
X67722068Y-180401674D01*
X62500000Y-175179605D01*
X57277932Y-180401674D01*
X50660000Y-180401674D01*
X50660000Y-174825743D01*
X54830037Y-174825743D01*
X54943417Y-176325428D01*
X55347193Y-177774176D01*
X56025847Y-179116314D01*
X56219470Y-179406092D01*
X57098326Y-180222068D01*
X62320395Y-175000000D01*
X62679605Y-175000000D01*
X67901674Y-180222068D01*
X68780530Y-179406092D01*
X69519437Y-178096160D01*
X69988591Y-176667244D01*
X70169963Y-175174257D01*
X70143615Y-174825743D01*
X79830037Y-174825743D01*
X79943417Y-176325428D01*
X80347193Y-177774176D01*
X81025847Y-179116314D01*
X81219470Y-179406092D01*
X82098326Y-180222068D01*
X87320395Y-175000000D01*
X87679605Y-175000000D01*
X92901674Y-180222068D01*
X93780530Y-179406092D01*
X94519437Y-178096160D01*
X94988591Y-176667244D01*
X95169963Y-175174257D01*
X95143615Y-174825743D01*
X104830037Y-174825743D01*
X104943417Y-176325428D01*
X105347193Y-177774176D01*
X106025847Y-179116314D01*
X106219470Y-179406092D01*
X107098326Y-180222068D01*
X112320395Y-175000000D01*
X112679605Y-175000000D01*
X117901674Y-180222068D01*
X118780530Y-179406092D01*
X119519437Y-178096160D01*
X119988591Y-176667244D01*
X120169963Y-175174257D01*
X120143615Y-174825743D01*
X129830037Y-174825743D01*
X129943417Y-176325428D01*
X130347193Y-177774176D01*
X131025847Y-179116314D01*
X131219470Y-179406092D01*
X132098326Y-180222068D01*
X137320395Y-175000000D01*
X137679605Y-175000000D01*
X142901674Y-180222068D01*
X143780530Y-179406092D01*
X144519437Y-178096160D01*
X144988591Y-176667244D01*
X145169963Y-175174257D01*
X145056583Y-173674572D01*
X144652807Y-172225824D01*
X143974153Y-170883686D01*
X143780530Y-170593908D01*
X142901674Y-169777932D01*
X137679605Y-175000000D01*
X137320395Y-175000000D01*
X132098326Y-169777932D01*
X131219470Y-170593908D01*
X130480563Y-171903840D01*
X130011409Y-173332756D01*
X129830037Y-174825743D01*
X120143615Y-174825743D01*
X120056583Y-173674572D01*
X119652807Y-172225824D01*
X118974153Y-170883686D01*
X118780530Y-170593908D01*
X117901674Y-169777932D01*
X112679605Y-175000000D01*
X112320395Y-175000000D01*
X107098326Y-169777932D01*
X106219470Y-170593908D01*
X105480563Y-171903840D01*
X105011409Y-173332756D01*
X104830037Y-174825743D01*
X95143615Y-174825743D01*
X95056583Y-173674572D01*
X94652807Y-172225824D01*
X93974153Y-170883686D01*
X93780530Y-170593908D01*
X92901674Y-169777932D01*
X87679605Y-175000000D01*
X87320395Y-175000000D01*
X82098326Y-169777932D01*
X81219470Y-170593908D01*
X80480563Y-171903840D01*
X80011409Y-173332756D01*
X79830037Y-174825743D01*
X70143615Y-174825743D01*
X70056583Y-173674572D01*
X69652807Y-172225824D01*
X68974153Y-170883686D01*
X68780530Y-170593908D01*
X67901674Y-169777932D01*
X62679605Y-175000000D01*
X62320395Y-175000000D01*
X57098326Y-169777932D01*
X56219470Y-170593908D01*
X55480563Y-171903840D01*
X55011409Y-173332756D01*
X54830037Y-174825743D01*
X50660000Y-174825743D01*
X50660000Y-169598326D01*
X57277932Y-169598326D01*
X62500000Y-174820395D01*
X67722068Y-169598326D01*
X82277932Y-169598326D01*
X87500000Y-174820395D01*
X92722068Y-169598326D01*
X107277932Y-169598326D01*
X112500000Y-174820395D01*
X117722068Y-169598326D01*
X132277932Y-169598326D01*
X137500000Y-174820395D01*
X142722068Y-169598326D01*
X141906092Y-168719470D01*
X140596160Y-167980563D01*
X139167244Y-167511409D01*
X137674257Y-167330037D01*
X136174572Y-167443417D01*
X134725824Y-167847193D01*
X133383686Y-168525847D01*
X133093908Y-168719470D01*
X132277932Y-169598326D01*
X117722068Y-169598326D01*
X116906092Y-168719470D01*
X115596160Y-167980563D01*
X114167244Y-167511409D01*
X112674257Y-167330037D01*
X111174572Y-167443417D01*
X109725824Y-167847193D01*
X108383686Y-168525847D01*
X108093908Y-168719470D01*
X107277932Y-169598326D01*
X92722068Y-169598326D01*
X91906092Y-168719470D01*
X90596160Y-167980563D01*
X89167244Y-167511409D01*
X87674257Y-167330037D01*
X86174572Y-167443417D01*
X84725824Y-167847193D01*
X83383686Y-168525847D01*
X83093908Y-168719470D01*
X82277932Y-169598326D01*
X67722068Y-169598326D01*
X66906092Y-168719470D01*
X65596160Y-167980563D01*
X64167244Y-167511409D01*
X62674257Y-167330037D01*
X61174572Y-167443417D01*
X59725824Y-167847193D01*
X58383686Y-168525847D01*
X58093908Y-168719470D01*
X57277932Y-169598326D01*
X50660000Y-169598326D01*
X50660000Y-138624971D01*
X61554634Y-138624971D01*
X62070783Y-139247788D01*
X62955768Y-139737630D01*
X63919314Y-140045407D01*
X64924389Y-140159293D01*
X65932370Y-140074910D01*
X66904520Y-139795501D01*
X67803481Y-139331803D01*
X67929217Y-139247788D01*
X68445366Y-138624971D01*
X114054634Y-138624971D01*
X114570783Y-139247788D01*
X115455768Y-139737630D01*
X116419314Y-140045407D01*
X117424389Y-140159293D01*
X118432370Y-140074910D01*
X119404520Y-139795501D01*
X120303481Y-139331803D01*
X120429217Y-139247788D01*
X120945366Y-138624971D01*
X117500000Y-135179605D01*
X114054634Y-138624971D01*
X68445366Y-138624971D01*
X65000000Y-135179605D01*
X61554634Y-138624971D01*
X50660000Y-138624971D01*
X50660000Y-134924389D01*
X59840707Y-134924389D01*
X59925090Y-135932370D01*
X60204499Y-136904520D01*
X60668197Y-137803481D01*
X60752212Y-137929217D01*
X61375029Y-138445366D01*
X64820395Y-135000000D01*
X65179605Y-135000000D01*
X68624971Y-138445366D01*
X69247788Y-137929217D01*
X69737630Y-137044232D01*
X70045407Y-136080686D01*
X70159293Y-135075611D01*
X70146634Y-134924389D01*
X112340707Y-134924389D01*
X112425090Y-135932370D01*
X112704499Y-136904520D01*
X113168197Y-137803481D01*
X113252212Y-137929217D01*
X113875029Y-138445366D01*
X117320395Y-135000000D01*
X117679605Y-135000000D01*
X121124971Y-138445366D01*
X121747788Y-137929217D01*
X122237630Y-137044232D01*
X122545407Y-136080686D01*
X122659293Y-135075611D01*
X122574910Y-134067630D01*
X122295501Y-133095480D01*
X121831803Y-132196519D01*
X121747788Y-132070783D01*
X121124971Y-131554634D01*
X117679605Y-135000000D01*
X117320395Y-135000000D01*
X113875029Y-131554634D01*
X113252212Y-132070783D01*
X112762370Y-132955768D01*
X112454593Y-133919314D01*
X112340707Y-134924389D01*
X70146634Y-134924389D01*
X70074910Y-134067630D01*
X69795501Y-133095480D01*
X69331803Y-132196519D01*
X69247788Y-132070783D01*
X68624971Y-131554634D01*
X65179605Y-135000000D01*
X64820395Y-135000000D01*
X61375029Y-131554634D01*
X60752212Y-132070783D01*
X60262370Y-132955768D01*
X59954593Y-133919314D01*
X59840707Y-134924389D01*
X50660000Y-134924389D01*
X50660000Y-131375029D01*
X61554634Y-131375029D01*
X65000000Y-134820395D01*
X68445366Y-131375029D01*
X114054634Y-131375029D01*
X117500000Y-134820395D01*
X120945366Y-131375029D01*
X120429217Y-130752212D01*
X119544232Y-130262370D01*
X118580686Y-129954593D01*
X117575611Y-129840707D01*
X116567630Y-129925090D01*
X115595480Y-130204499D01*
X114696519Y-130668197D01*
X114570783Y-130752212D01*
X114054634Y-131375029D01*
X68445366Y-131375029D01*
X67929217Y-130752212D01*
X67044232Y-130262370D01*
X66080686Y-129954593D01*
X65075611Y-129840707D01*
X64067630Y-129925090D01*
X63095480Y-130204499D01*
X62196519Y-130668197D01*
X62070783Y-130752212D01*
X61554634Y-131375029D01*
X50660000Y-131375029D01*
X50660000Y-108624971D01*
X61554634Y-108624971D01*
X62070783Y-109247788D01*
X62955768Y-109737630D01*
X63919314Y-110045407D01*
X64924389Y-110159293D01*
X65932370Y-110074910D01*
X66904520Y-109795501D01*
X67803481Y-109331803D01*
X67929217Y-109247788D01*
X68445366Y-108624971D01*
X114054634Y-108624971D01*
X114570783Y-109247788D01*
X115455768Y-109737630D01*
X116419314Y-110045407D01*
X117424389Y-110159293D01*
X118432370Y-110074910D01*
X119404520Y-109795501D01*
X120303481Y-109331803D01*
X120429217Y-109247788D01*
X120945366Y-108624971D01*
X117500000Y-105179605D01*
X114054634Y-108624971D01*
X68445366Y-108624971D01*
X65000000Y-105179605D01*
X61554634Y-108624971D01*
X50660000Y-108624971D01*
X50660000Y-104924389D01*
X59840707Y-104924389D01*
X59925090Y-105932370D01*
X60204499Y-106904520D01*
X60668197Y-107803481D01*
X60752212Y-107929217D01*
X61375029Y-108445366D01*
X64820395Y-105000000D01*
X65179605Y-105000000D01*
X68624971Y-108445366D01*
X69247788Y-107929217D01*
X69737630Y-107044232D01*
X70045407Y-106080686D01*
X70159293Y-105075611D01*
X70146634Y-104924389D01*
X112340707Y-104924389D01*
X112425090Y-105932370D01*
X112704499Y-106904520D01*
X113168197Y-107803481D01*
X113252212Y-107929217D01*
X113875029Y-108445366D01*
X117320395Y-105000000D01*
X117679605Y-105000000D01*
X121124971Y-108445366D01*
X121747788Y-107929217D01*
X122237630Y-107044232D01*
X122545407Y-106080686D01*
X122659293Y-105075611D01*
X122574910Y-104067630D01*
X122295501Y-103095480D01*
X121831803Y-102196519D01*
X121747788Y-102070783D01*
X121124971Y-101554634D01*
X117679605Y-105000000D01*
X117320395Y-105000000D01*
X113875029Y-101554634D01*
X113252212Y-102070783D01*
X112762370Y-102955768D01*
X112454593Y-103919314D01*
X112340707Y-104924389D01*
X70146634Y-104924389D01*
X70074910Y-104067630D01*
X69795501Y-103095480D01*
X69331803Y-102196519D01*
X69247788Y-102070783D01*
X68624971Y-101554634D01*
X65179605Y-105000000D01*
X64820395Y-105000000D01*
X61375029Y-101554634D01*
X60752212Y-102070783D01*
X60262370Y-102955768D01*
X59954593Y-103919314D01*
X59840707Y-104924389D01*
X50660000Y-104924389D01*
X50660000Y-101375029D01*
X61554634Y-101375029D01*
X65000000Y-104820395D01*
X68445366Y-101375029D01*
X114054634Y-101375029D01*
X117500000Y-104820395D01*
X120945366Y-101375029D01*
X120429217Y-100752212D01*
X119544232Y-100262370D01*
X118580686Y-99954593D01*
X117575611Y-99840707D01*
X116567630Y-99925090D01*
X115595480Y-100204499D01*
X114696519Y-100668197D01*
X114570783Y-100752212D01*
X114054634Y-101375029D01*
X68445366Y-101375029D01*
X67929217Y-100752212D01*
X67044232Y-100262370D01*
X66080686Y-99954593D01*
X65075611Y-99840707D01*
X64067630Y-99925090D01*
X63095480Y-100204499D01*
X62196519Y-100668197D01*
X62070783Y-100752212D01*
X61554634Y-101375029D01*
X50660000Y-101375029D01*
X50660000Y-68624971D01*
X61554634Y-68624971D01*
X62070783Y-69247788D01*
X62955768Y-69737630D01*
X63919314Y-70045407D01*
X64924389Y-70159293D01*
X65932370Y-70074910D01*
X66904520Y-69795501D01*
X67803481Y-69331803D01*
X67929217Y-69247788D01*
X68445366Y-68624971D01*
X96554634Y-68624971D01*
X97070783Y-69247788D01*
X97955768Y-69737630D01*
X98919314Y-70045407D01*
X99924389Y-70159293D01*
X100932370Y-70074910D01*
X101904520Y-69795501D01*
X102803481Y-69331803D01*
X102929217Y-69247788D01*
X103445366Y-68624971D01*
X131554634Y-68624971D01*
X132070783Y-69247788D01*
X132955768Y-69737630D01*
X133919314Y-70045407D01*
X134924389Y-70159293D01*
X135932370Y-70074910D01*
X136904520Y-69795501D01*
X137803481Y-69331803D01*
X137929217Y-69247788D01*
X138445366Y-68624971D01*
X135000000Y-65179605D01*
X131554634Y-68624971D01*
X103445366Y-68624971D01*
X100000000Y-65179605D01*
X96554634Y-68624971D01*
X68445366Y-68624971D01*
X65000000Y-65179605D01*
X61554634Y-68624971D01*
X50660000Y-68624971D01*
X50660000Y-64924389D01*
X59840707Y-64924389D01*
X59925090Y-65932370D01*
X60204499Y-66904520D01*
X60668197Y-67803481D01*
X60752212Y-67929217D01*
X61375029Y-68445366D01*
X64820395Y-65000000D01*
X65179605Y-65000000D01*
X68624971Y-68445366D01*
X69247788Y-67929217D01*
X69737630Y-67044232D01*
X70045407Y-66080686D01*
X70159293Y-65075611D01*
X70146634Y-64924389D01*
X94840707Y-64924389D01*
X94925090Y-65932370D01*
X95204499Y-66904520D01*
X95668197Y-67803481D01*
X95752212Y-67929217D01*
X96375029Y-68445366D01*
X99820395Y-65000000D01*
X100179605Y-65000000D01*
X103624971Y-68445366D01*
X104247788Y-67929217D01*
X104737630Y-67044232D01*
X105045407Y-66080686D01*
X105159293Y-65075611D01*
X105146634Y-64924389D01*
X129840707Y-64924389D01*
X129925090Y-65932370D01*
X130204499Y-66904520D01*
X130668197Y-67803481D01*
X130752212Y-67929217D01*
X131375029Y-68445366D01*
X134820395Y-65000000D01*
X135179605Y-65000000D01*
X138624971Y-68445366D01*
X139247788Y-67929217D01*
X139737630Y-67044232D01*
X140045407Y-66080686D01*
X140159293Y-65075611D01*
X140074910Y-64067630D01*
X139795501Y-63095480D01*
X139331803Y-62196519D01*
X139247788Y-62070783D01*
X138624971Y-61554634D01*
X135179605Y-65000000D01*
X134820395Y-65000000D01*
X131375029Y-61554634D01*
X130752212Y-62070783D01*
X130262370Y-62955768D01*
X129954593Y-63919314D01*
X129840707Y-64924389D01*
X105146634Y-64924389D01*
X105074910Y-64067630D01*
X104795501Y-63095480D01*
X104331803Y-62196519D01*
X104247788Y-62070783D01*
X103624971Y-61554634D01*
X100179605Y-65000000D01*
X99820395Y-65000000D01*
X96375029Y-61554634D01*
X95752212Y-62070783D01*
X95262370Y-62955768D01*
X94954593Y-63919314D01*
X94840707Y-64924389D01*
X70146634Y-64924389D01*
X70074910Y-64067630D01*
X69795501Y-63095480D01*
X69331803Y-62196519D01*
X69247788Y-62070783D01*
X68624971Y-61554634D01*
X65179605Y-65000000D01*
X64820395Y-65000000D01*
X61375029Y-61554634D01*
X60752212Y-62070783D01*
X60262370Y-62955768D01*
X59954593Y-63919314D01*
X59840707Y-64924389D01*
X50660000Y-64924389D01*
X50660000Y-61375029D01*
X61554634Y-61375029D01*
X65000000Y-64820395D01*
X68445366Y-61375029D01*
X96554634Y-61375029D01*
X100000000Y-64820395D01*
X103445366Y-61375029D01*
X131554634Y-61375029D01*
X135000000Y-64820395D01*
X138445366Y-61375029D01*
X137929217Y-60752212D01*
X137044232Y-60262370D01*
X136080686Y-59954593D01*
X135075611Y-59840707D01*
X134067630Y-59925090D01*
X133095480Y-60204499D01*
X132196519Y-60668197D01*
X132070783Y-60752212D01*
X131554634Y-61375029D01*
X103445366Y-61375029D01*
X102929217Y-60752212D01*
X102044232Y-60262370D01*
X101080686Y-59954593D01*
X100075611Y-59840707D01*
X99067630Y-59925090D01*
X98095480Y-60204499D01*
X97196519Y-60668197D01*
X97070783Y-60752212D01*
X96554634Y-61375029D01*
X68445366Y-61375029D01*
X67929217Y-60752212D01*
X67044232Y-60262370D01*
X66080686Y-59954593D01*
X65075611Y-59840707D01*
X64067630Y-59925090D01*
X63095480Y-60204499D01*
X62196519Y-60668197D01*
X62070783Y-60752212D01*
X61554634Y-61375029D01*
X50660000Y-61375029D01*
X50660000Y-33624971D01*
X61554634Y-33624971D01*
X62070783Y-34247788D01*
X62955768Y-34737630D01*
X63919314Y-35045407D01*
X64924389Y-35159293D01*
X65932370Y-35074910D01*
X66904520Y-34795501D01*
X67803481Y-34331803D01*
X67929217Y-34247788D01*
X68445366Y-33624971D01*
X96554634Y-33624971D01*
X97070783Y-34247788D01*
X97955768Y-34737630D01*
X98919314Y-35045407D01*
X99924389Y-35159293D01*
X100932370Y-35074910D01*
X101904520Y-34795501D01*
X102803481Y-34331803D01*
X102929217Y-34247788D01*
X103445366Y-33624971D01*
X131554634Y-33624971D01*
X132070783Y-34247788D01*
X132955768Y-34737630D01*
X133919314Y-35045407D01*
X134924389Y-35159293D01*
X135932370Y-35074910D01*
X136904520Y-34795501D01*
X137803481Y-34331803D01*
X137929217Y-34247788D01*
X138445366Y-33624971D01*
X135000000Y-30179605D01*
X131554634Y-33624971D01*
X103445366Y-33624971D01*
X100000000Y-30179605D01*
X96554634Y-33624971D01*
X68445366Y-33624971D01*
X65000000Y-30179605D01*
X61554634Y-33624971D01*
X50660000Y-33624971D01*
X50660000Y-29924389D01*
X59840707Y-29924389D01*
X59925090Y-30932370D01*
X60204499Y-31904520D01*
X60668197Y-32803481D01*
X60752212Y-32929217D01*
X61375029Y-33445366D01*
X64820395Y-30000000D01*
X65179605Y-30000000D01*
X68624971Y-33445366D01*
X69247788Y-32929217D01*
X69737630Y-32044232D01*
X70045407Y-31080686D01*
X70159293Y-30075611D01*
X70146634Y-29924389D01*
X94840707Y-29924389D01*
X94925090Y-30932370D01*
X95204499Y-31904520D01*
X95668197Y-32803481D01*
X95752212Y-32929217D01*
X96375029Y-33445366D01*
X99820395Y-30000000D01*
X100179605Y-30000000D01*
X103624971Y-33445366D01*
X104247788Y-32929217D01*
X104737630Y-32044232D01*
X105045407Y-31080686D01*
X105159293Y-30075611D01*
X105146634Y-29924389D01*
X129840707Y-29924389D01*
X129925090Y-30932370D01*
X130204499Y-31904520D01*
X130668197Y-32803481D01*
X130752212Y-32929217D01*
X131375029Y-33445366D01*
X134820395Y-30000000D01*
X135179605Y-30000000D01*
X138624971Y-33445366D01*
X139247788Y-32929217D01*
X139737630Y-32044232D01*
X140045407Y-31080686D01*
X140159293Y-30075611D01*
X140074910Y-29067630D01*
X139795501Y-28095480D01*
X139331803Y-27196519D01*
X139247788Y-27070783D01*
X138624971Y-26554634D01*
X135179605Y-30000000D01*
X134820395Y-30000000D01*
X131375029Y-26554634D01*
X130752212Y-27070783D01*
X130262370Y-27955768D01*
X129954593Y-28919314D01*
X129840707Y-29924389D01*
X105146634Y-29924389D01*
X105074910Y-29067630D01*
X104795501Y-28095480D01*
X104331803Y-27196519D01*
X104247788Y-27070783D01*
X103624971Y-26554634D01*
X100179605Y-30000000D01*
X99820395Y-30000000D01*
X96375029Y-26554634D01*
X95752212Y-27070783D01*
X95262370Y-27955768D01*
X94954593Y-28919314D01*
X94840707Y-29924389D01*
X70146634Y-29924389D01*
X70074910Y-29067630D01*
X69795501Y-28095480D01*
X69331803Y-27196519D01*
X69247788Y-27070783D01*
X68624971Y-26554634D01*
X65179605Y-30000000D01*
X64820395Y-30000000D01*
X61375029Y-26554634D01*
X60752212Y-27070783D01*
X60262370Y-27955768D01*
X59954593Y-28919314D01*
X59840707Y-29924389D01*
X50660000Y-29924389D01*
X50660000Y-26375029D01*
X61554634Y-26375029D01*
X65000000Y-29820395D01*
X68445366Y-26375029D01*
X96554634Y-26375029D01*
X100000000Y-29820395D01*
X103445366Y-26375029D01*
X131554634Y-26375029D01*
X135000000Y-29820395D01*
X138445366Y-26375029D01*
X137929217Y-25752212D01*
X137044232Y-25262370D01*
X136080686Y-24954593D01*
X135075611Y-24840707D01*
X134067630Y-24925090D01*
X133095480Y-25204499D01*
X132196519Y-25668197D01*
X132070783Y-25752212D01*
X131554634Y-26375029D01*
X103445366Y-26375029D01*
X102929217Y-25752212D01*
X102044232Y-25262370D01*
X101080686Y-24954593D01*
X100075611Y-24840707D01*
X99067630Y-24925090D01*
X98095480Y-25204499D01*
X97196519Y-25668197D01*
X97070783Y-25752212D01*
X96554634Y-26375029D01*
X68445366Y-26375029D01*
X67929217Y-25752212D01*
X67044232Y-25262370D01*
X66080686Y-24954593D01*
X65075611Y-24840707D01*
X64067630Y-24925090D01*
X63095480Y-25204499D01*
X62196519Y-25668197D01*
X62070783Y-25752212D01*
X61554634Y-26375029D01*
X50660000Y-26375029D01*
X50660000Y-4211938D01*
X50798477Y-4471011D01*
X51127759Y-4872241D01*
X51528989Y-5201523D01*
X51986750Y-5446201D01*
X52483450Y-5596873D01*
X52870558Y-5635000D01*
X55929442Y-5635000D01*
X56316550Y-5596873D01*
X56813250Y-5446201D01*
X57271011Y-5201523D01*
X57672241Y-4872241D01*
X58001523Y-4471011D01*
X58246201Y-4013250D01*
X58396873Y-3516550D01*
X58447749Y-3000000D01*
X58396873Y-2483450D01*
X58246201Y-1986750D01*
X58001523Y-1528989D01*
X57672241Y-1127759D01*
X57271011Y-798477D01*
X57011938Y-660000D01*
X142988062Y-660000D01*
X142728989Y-798477D01*
G37*
X142728989Y-798477D02*
X142327759Y-1127759D01*
X141998477Y-1528989D01*
X141753799Y-1986750D01*
X141603127Y-2483450D01*
X141552251Y-3000000D01*
X141603127Y-3516550D01*
X141753799Y-4013250D01*
X141998477Y-4471011D01*
X142327759Y-4872241D01*
X142728989Y-5201523D01*
X143186750Y-5446201D01*
X143683450Y-5596873D01*
X144070558Y-5635000D01*
X147129442Y-5635000D01*
X147516550Y-5596873D01*
X148013250Y-5446201D01*
X148471011Y-5201523D01*
X148872241Y-4872241D01*
X149201523Y-4471011D01*
X149340000Y-4211938D01*
X149340001Y-195788063D01*
X149201523Y-195528989D01*
X148872241Y-195127759D01*
X148471011Y-194798477D01*
X148013250Y-194553799D01*
X147516550Y-194403127D01*
X147129442Y-194365000D01*
X144070558Y-194365000D01*
X143683450Y-194403127D01*
X143186750Y-194553799D01*
X142728989Y-194798477D01*
X142327759Y-195127759D01*
X141998477Y-195528989D01*
X141753799Y-195986750D01*
X141603127Y-196483450D01*
X141552251Y-197000000D01*
X141603127Y-197516550D01*
X141753799Y-198013250D01*
X141998477Y-198471011D01*
X142327759Y-198872241D01*
X142728989Y-199201523D01*
X142988062Y-199340000D01*
X57011938Y-199340000D01*
X57271011Y-199201523D01*
X57672241Y-198872241D01*
X58001523Y-198471011D01*
X58246201Y-198013250D01*
X58396873Y-197516550D01*
X58447749Y-197000000D01*
X58396873Y-196483450D01*
X58246201Y-195986750D01*
X58001523Y-195528989D01*
X57672241Y-195127759D01*
X57271011Y-194798477D01*
X56813250Y-194553799D01*
X56316550Y-194403127D01*
X55929442Y-194365000D01*
X52870558Y-194365000D01*
X52483450Y-194403127D01*
X51986750Y-194553799D01*
X51528989Y-194798477D01*
X51127759Y-195127759D01*
X50798477Y-195528989D01*
X50660000Y-195788062D01*
X50660000Y-180401674D01*
X57277932Y-180401674D01*
X58093908Y-181280530D01*
X59403840Y-182019437D01*
X60832756Y-182488591D01*
X62325743Y-182669963D01*
X63825428Y-182556583D01*
X65274176Y-182152807D01*
X66616314Y-181474153D01*
X66906092Y-181280530D01*
X67722068Y-180401674D01*
X82277932Y-180401674D01*
X83093908Y-181280530D01*
X84403840Y-182019437D01*
X85832756Y-182488591D01*
X87325743Y-182669963D01*
X88825428Y-182556583D01*
X90274176Y-182152807D01*
X91616314Y-181474153D01*
X91906092Y-181280530D01*
X92722068Y-180401674D01*
X107277932Y-180401674D01*
X108093908Y-181280530D01*
X109403840Y-182019437D01*
X110832756Y-182488591D01*
X112325743Y-182669963D01*
X113825428Y-182556583D01*
X115274176Y-182152807D01*
X116616314Y-181474153D01*
X116906092Y-181280530D01*
X117722068Y-180401674D01*
X132277932Y-180401674D01*
X133093908Y-181280530D01*
X134403840Y-182019437D01*
X135832756Y-182488591D01*
X137325743Y-182669963D01*
X138825428Y-182556583D01*
X140274176Y-182152807D01*
X141616314Y-181474153D01*
X141906092Y-181280530D01*
X142722068Y-180401674D01*
X137500000Y-175179605D01*
X132277932Y-180401674D01*
X117722068Y-180401674D01*
X112500000Y-175179605D01*
X107277932Y-180401674D01*
X92722068Y-180401674D01*
X87500000Y-175179605D01*
X82277932Y-180401674D01*
X67722068Y-180401674D01*
X62500000Y-175179605D01*
X57277932Y-180401674D01*
X50660000Y-180401674D01*
X50660000Y-174825743D01*
X54830037Y-174825743D01*
X54943417Y-176325428D01*
X55347193Y-177774176D01*
X56025847Y-179116314D01*
X56219470Y-179406092D01*
X57098326Y-180222068D01*
X62320395Y-175000000D01*
X62679605Y-175000000D01*
X67901674Y-180222068D01*
X68780530Y-179406092D01*
X69519437Y-178096160D01*
X69988591Y-176667244D01*
X70169963Y-175174257D01*
X70143615Y-174825743D01*
X79830037Y-174825743D01*
X79943417Y-176325428D01*
X80347193Y-177774176D01*
X81025847Y-179116314D01*
X81219470Y-179406092D01*
X82098326Y-180222068D01*
X87320395Y-175000000D01*
X87679605Y-175000000D01*
X92901674Y-180222068D01*
X93780530Y-179406092D01*
X94519437Y-178096160D01*
X94988591Y-176667244D01*
X95169963Y-175174257D01*
X95143615Y-174825743D01*
X104830037Y-174825743D01*
X104943417Y-176325428D01*
X105347193Y-177774176D01*
X106025847Y-179116314D01*
X106219470Y-179406092D01*
X107098326Y-180222068D01*
X112320395Y-175000000D01*
X112679605Y-175000000D01*
X117901674Y-180222068D01*
X118780530Y-179406092D01*
X119519437Y-178096160D01*
X119988591Y-176667244D01*
X120169963Y-175174257D01*
X120143615Y-174825743D01*
X129830037Y-174825743D01*
X129943417Y-176325428D01*
X130347193Y-177774176D01*
X131025847Y-179116314D01*
X131219470Y-179406092D01*
X132098326Y-180222068D01*
X137320395Y-175000000D01*
X137679605Y-175000000D01*
X142901674Y-180222068D01*
X143780530Y-179406092D01*
X144519437Y-178096160D01*
X144988591Y-176667244D01*
X145169963Y-175174257D01*
X145056583Y-173674572D01*
X144652807Y-172225824D01*
X143974153Y-170883686D01*
X143780530Y-170593908D01*
X142901674Y-169777932D01*
X137679605Y-175000000D01*
X137320395Y-175000000D01*
X132098326Y-169777932D01*
X131219470Y-170593908D01*
X130480563Y-171903840D01*
X130011409Y-173332756D01*
X129830037Y-174825743D01*
X120143615Y-174825743D01*
X120056583Y-173674572D01*
X119652807Y-172225824D01*
X118974153Y-170883686D01*
X118780530Y-170593908D01*
X117901674Y-169777932D01*
X112679605Y-175000000D01*
X112320395Y-175000000D01*
X107098326Y-169777932D01*
X106219470Y-170593908D01*
X105480563Y-171903840D01*
X105011409Y-173332756D01*
X104830037Y-174825743D01*
X95143615Y-174825743D01*
X95056583Y-173674572D01*
X94652807Y-172225824D01*
X93974153Y-170883686D01*
X93780530Y-170593908D01*
X92901674Y-169777932D01*
X87679605Y-175000000D01*
X87320395Y-175000000D01*
X82098326Y-169777932D01*
X81219470Y-170593908D01*
X80480563Y-171903840D01*
X80011409Y-173332756D01*
X79830037Y-174825743D01*
X70143615Y-174825743D01*
X70056583Y-173674572D01*
X69652807Y-172225824D01*
X68974153Y-170883686D01*
X68780530Y-170593908D01*
X67901674Y-169777932D01*
X62679605Y-175000000D01*
X62320395Y-175000000D01*
X57098326Y-169777932D01*
X56219470Y-170593908D01*
X55480563Y-171903840D01*
X55011409Y-173332756D01*
X54830037Y-174825743D01*
X50660000Y-174825743D01*
X50660000Y-169598326D01*
X57277932Y-169598326D01*
X62500000Y-174820395D01*
X67722068Y-169598326D01*
X82277932Y-169598326D01*
X87500000Y-174820395D01*
X92722068Y-169598326D01*
X107277932Y-169598326D01*
X112500000Y-174820395D01*
X117722068Y-169598326D01*
X132277932Y-169598326D01*
X137500000Y-174820395D01*
X142722068Y-169598326D01*
X141906092Y-168719470D01*
X140596160Y-167980563D01*
X139167244Y-167511409D01*
X137674257Y-167330037D01*
X136174572Y-167443417D01*
X134725824Y-167847193D01*
X133383686Y-168525847D01*
X133093908Y-168719470D01*
X132277932Y-169598326D01*
X117722068Y-169598326D01*
X116906092Y-168719470D01*
X115596160Y-167980563D01*
X114167244Y-167511409D01*
X112674257Y-167330037D01*
X111174572Y-167443417D01*
X109725824Y-167847193D01*
X108383686Y-168525847D01*
X108093908Y-168719470D01*
X107277932Y-169598326D01*
X92722068Y-169598326D01*
X91906092Y-168719470D01*
X90596160Y-167980563D01*
X89167244Y-167511409D01*
X87674257Y-167330037D01*
X86174572Y-167443417D01*
X84725824Y-167847193D01*
X83383686Y-168525847D01*
X83093908Y-168719470D01*
X82277932Y-169598326D01*
X67722068Y-169598326D01*
X66906092Y-168719470D01*
X65596160Y-167980563D01*
X64167244Y-167511409D01*
X62674257Y-167330037D01*
X61174572Y-167443417D01*
X59725824Y-167847193D01*
X58383686Y-168525847D01*
X58093908Y-168719470D01*
X57277932Y-169598326D01*
X50660000Y-169598326D01*
X50660000Y-138624971D01*
X61554634Y-138624971D01*
X62070783Y-139247788D01*
X62955768Y-139737630D01*
X63919314Y-140045407D01*
X64924389Y-140159293D01*
X65932370Y-140074910D01*
X66904520Y-139795501D01*
X67803481Y-139331803D01*
X67929217Y-139247788D01*
X68445366Y-138624971D01*
X114054634Y-138624971D01*
X114570783Y-139247788D01*
X115455768Y-139737630D01*
X116419314Y-140045407D01*
X117424389Y-140159293D01*
X118432370Y-140074910D01*
X119404520Y-139795501D01*
X120303481Y-139331803D01*
X120429217Y-139247788D01*
X120945366Y-138624971D01*
X117500000Y-135179605D01*
X114054634Y-138624971D01*
X68445366Y-138624971D01*
X65000000Y-135179605D01*
X61554634Y-138624971D01*
X50660000Y-138624971D01*
X50660000Y-134924389D01*
X59840707Y-134924389D01*
X59925090Y-135932370D01*
X60204499Y-136904520D01*
X60668197Y-137803481D01*
X60752212Y-137929217D01*
X61375029Y-138445366D01*
X64820395Y-135000000D01*
X65179605Y-135000000D01*
X68624971Y-138445366D01*
X69247788Y-137929217D01*
X69737630Y-137044232D01*
X70045407Y-136080686D01*
X70159293Y-135075611D01*
X70146634Y-134924389D01*
X112340707Y-134924389D01*
X112425090Y-135932370D01*
X112704499Y-136904520D01*
X113168197Y-137803481D01*
X113252212Y-137929217D01*
X113875029Y-138445366D01*
X117320395Y-135000000D01*
X117679605Y-135000000D01*
X121124971Y-138445366D01*
X121747788Y-137929217D01*
X122237630Y-137044232D01*
X122545407Y-136080686D01*
X122659293Y-135075611D01*
X122574910Y-134067630D01*
X122295501Y-133095480D01*
X121831803Y-132196519D01*
X121747788Y-132070783D01*
X121124971Y-131554634D01*
X117679605Y-135000000D01*
X117320395Y-135000000D01*
X113875029Y-131554634D01*
X113252212Y-132070783D01*
X112762370Y-132955768D01*
X112454593Y-133919314D01*
X112340707Y-134924389D01*
X70146634Y-134924389D01*
X70074910Y-134067630D01*
X69795501Y-133095480D01*
X69331803Y-132196519D01*
X69247788Y-132070783D01*
X68624971Y-131554634D01*
X65179605Y-135000000D01*
X64820395Y-135000000D01*
X61375029Y-131554634D01*
X60752212Y-132070783D01*
X60262370Y-132955768D01*
X59954593Y-133919314D01*
X59840707Y-134924389D01*
X50660000Y-134924389D01*
X50660000Y-131375029D01*
X61554634Y-131375029D01*
X65000000Y-134820395D01*
X68445366Y-131375029D01*
X114054634Y-131375029D01*
X117500000Y-134820395D01*
X120945366Y-131375029D01*
X120429217Y-130752212D01*
X119544232Y-130262370D01*
X118580686Y-129954593D01*
X117575611Y-129840707D01*
X116567630Y-129925090D01*
X115595480Y-130204499D01*
X114696519Y-130668197D01*
X114570783Y-130752212D01*
X114054634Y-131375029D01*
X68445366Y-131375029D01*
X67929217Y-130752212D01*
X67044232Y-130262370D01*
X66080686Y-129954593D01*
X65075611Y-129840707D01*
X64067630Y-129925090D01*
X63095480Y-130204499D01*
X62196519Y-130668197D01*
X62070783Y-130752212D01*
X61554634Y-131375029D01*
X50660000Y-131375029D01*
X50660000Y-108624971D01*
X61554634Y-108624971D01*
X62070783Y-109247788D01*
X62955768Y-109737630D01*
X63919314Y-110045407D01*
X64924389Y-110159293D01*
X65932370Y-110074910D01*
X66904520Y-109795501D01*
X67803481Y-109331803D01*
X67929217Y-109247788D01*
X68445366Y-108624971D01*
X114054634Y-108624971D01*
X114570783Y-109247788D01*
X115455768Y-109737630D01*
X116419314Y-110045407D01*
X117424389Y-110159293D01*
X118432370Y-110074910D01*
X119404520Y-109795501D01*
X120303481Y-109331803D01*
X120429217Y-109247788D01*
X120945366Y-108624971D01*
X117500000Y-105179605D01*
X114054634Y-108624971D01*
X68445366Y-108624971D01*
X65000000Y-105179605D01*
X61554634Y-108624971D01*
X50660000Y-108624971D01*
X50660000Y-104924389D01*
X59840707Y-104924389D01*
X59925090Y-105932370D01*
X60204499Y-106904520D01*
X60668197Y-107803481D01*
X60752212Y-107929217D01*
X61375029Y-108445366D01*
X64820395Y-105000000D01*
X65179605Y-105000000D01*
X68624971Y-108445366D01*
X69247788Y-107929217D01*
X69737630Y-107044232D01*
X70045407Y-106080686D01*
X70159293Y-105075611D01*
X70146634Y-104924389D01*
X112340707Y-104924389D01*
X112425090Y-105932370D01*
X112704499Y-106904520D01*
X113168197Y-107803481D01*
X113252212Y-107929217D01*
X113875029Y-108445366D01*
X117320395Y-105000000D01*
X117679605Y-105000000D01*
X121124971Y-108445366D01*
X121747788Y-107929217D01*
X122237630Y-107044232D01*
X122545407Y-106080686D01*
X122659293Y-105075611D01*
X122574910Y-104067630D01*
X122295501Y-103095480D01*
X121831803Y-102196519D01*
X121747788Y-102070783D01*
X121124971Y-101554634D01*
X117679605Y-105000000D01*
X117320395Y-105000000D01*
X113875029Y-101554634D01*
X113252212Y-102070783D01*
X112762370Y-102955768D01*
X112454593Y-103919314D01*
X112340707Y-104924389D01*
X70146634Y-104924389D01*
X70074910Y-104067630D01*
X69795501Y-103095480D01*
X69331803Y-102196519D01*
X69247788Y-102070783D01*
X68624971Y-101554634D01*
X65179605Y-105000000D01*
X64820395Y-105000000D01*
X61375029Y-101554634D01*
X60752212Y-102070783D01*
X60262370Y-102955768D01*
X59954593Y-103919314D01*
X59840707Y-104924389D01*
X50660000Y-104924389D01*
X50660000Y-101375029D01*
X61554634Y-101375029D01*
X65000000Y-104820395D01*
X68445366Y-101375029D01*
X114054634Y-101375029D01*
X117500000Y-104820395D01*
X120945366Y-101375029D01*
X120429217Y-100752212D01*
X119544232Y-100262370D01*
X118580686Y-99954593D01*
X117575611Y-99840707D01*
X116567630Y-99925090D01*
X115595480Y-100204499D01*
X114696519Y-100668197D01*
X114570783Y-100752212D01*
X114054634Y-101375029D01*
X68445366Y-101375029D01*
X67929217Y-100752212D01*
X67044232Y-100262370D01*
X66080686Y-99954593D01*
X65075611Y-99840707D01*
X64067630Y-99925090D01*
X63095480Y-100204499D01*
X62196519Y-100668197D01*
X62070783Y-100752212D01*
X61554634Y-101375029D01*
X50660000Y-101375029D01*
X50660000Y-68624971D01*
X61554634Y-68624971D01*
X62070783Y-69247788D01*
X62955768Y-69737630D01*
X63919314Y-70045407D01*
X64924389Y-70159293D01*
X65932370Y-70074910D01*
X66904520Y-69795501D01*
X67803481Y-69331803D01*
X67929217Y-69247788D01*
X68445366Y-68624971D01*
X96554634Y-68624971D01*
X97070783Y-69247788D01*
X97955768Y-69737630D01*
X98919314Y-70045407D01*
X99924389Y-70159293D01*
X100932370Y-70074910D01*
X101904520Y-69795501D01*
X102803481Y-69331803D01*
X102929217Y-69247788D01*
X103445366Y-68624971D01*
X131554634Y-68624971D01*
X132070783Y-69247788D01*
X132955768Y-69737630D01*
X133919314Y-70045407D01*
X134924389Y-70159293D01*
X135932370Y-70074910D01*
X136904520Y-69795501D01*
X137803481Y-69331803D01*
X137929217Y-69247788D01*
X138445366Y-68624971D01*
X135000000Y-65179605D01*
X131554634Y-68624971D01*
X103445366Y-68624971D01*
X100000000Y-65179605D01*
X96554634Y-68624971D01*
X68445366Y-68624971D01*
X65000000Y-65179605D01*
X61554634Y-68624971D01*
X50660000Y-68624971D01*
X50660000Y-64924389D01*
X59840707Y-64924389D01*
X59925090Y-65932370D01*
X60204499Y-66904520D01*
X60668197Y-67803481D01*
X60752212Y-67929217D01*
X61375029Y-68445366D01*
X64820395Y-65000000D01*
X65179605Y-65000000D01*
X68624971Y-68445366D01*
X69247788Y-67929217D01*
X69737630Y-67044232D01*
X70045407Y-66080686D01*
X70159293Y-65075611D01*
X70146634Y-64924389D01*
X94840707Y-64924389D01*
X94925090Y-65932370D01*
X95204499Y-66904520D01*
X95668197Y-67803481D01*
X95752212Y-67929217D01*
X96375029Y-68445366D01*
X99820395Y-65000000D01*
X100179605Y-65000000D01*
X103624971Y-68445366D01*
X104247788Y-67929217D01*
X104737630Y-67044232D01*
X105045407Y-66080686D01*
X105159293Y-65075611D01*
X105146634Y-64924389D01*
X129840707Y-64924389D01*
X129925090Y-65932370D01*
X130204499Y-66904520D01*
X130668197Y-67803481D01*
X130752212Y-67929217D01*
X131375029Y-68445366D01*
X134820395Y-65000000D01*
X135179605Y-65000000D01*
X138624971Y-68445366D01*
X139247788Y-67929217D01*
X139737630Y-67044232D01*
X140045407Y-66080686D01*
X140159293Y-65075611D01*
X140074910Y-64067630D01*
X139795501Y-63095480D01*
X139331803Y-62196519D01*
X139247788Y-62070783D01*
X138624971Y-61554634D01*
X135179605Y-65000000D01*
X134820395Y-65000000D01*
X131375029Y-61554634D01*
X130752212Y-62070783D01*
X130262370Y-62955768D01*
X129954593Y-63919314D01*
X129840707Y-64924389D01*
X105146634Y-64924389D01*
X105074910Y-64067630D01*
X104795501Y-63095480D01*
X104331803Y-62196519D01*
X104247788Y-62070783D01*
X103624971Y-61554634D01*
X100179605Y-65000000D01*
X99820395Y-65000000D01*
X96375029Y-61554634D01*
X95752212Y-62070783D01*
X95262370Y-62955768D01*
X94954593Y-63919314D01*
X94840707Y-64924389D01*
X70146634Y-64924389D01*
X70074910Y-64067630D01*
X69795501Y-63095480D01*
X69331803Y-62196519D01*
X69247788Y-62070783D01*
X68624971Y-61554634D01*
X65179605Y-65000000D01*
X64820395Y-65000000D01*
X61375029Y-61554634D01*
X60752212Y-62070783D01*
X60262370Y-62955768D01*
X59954593Y-63919314D01*
X59840707Y-64924389D01*
X50660000Y-64924389D01*
X50660000Y-61375029D01*
X61554634Y-61375029D01*
X65000000Y-64820395D01*
X68445366Y-61375029D01*
X96554634Y-61375029D01*
X100000000Y-64820395D01*
X103445366Y-61375029D01*
X131554634Y-61375029D01*
X135000000Y-64820395D01*
X138445366Y-61375029D01*
X137929217Y-60752212D01*
X137044232Y-60262370D01*
X136080686Y-59954593D01*
X135075611Y-59840707D01*
X134067630Y-59925090D01*
X133095480Y-60204499D01*
X132196519Y-60668197D01*
X132070783Y-60752212D01*
X131554634Y-61375029D01*
X103445366Y-61375029D01*
X102929217Y-60752212D01*
X102044232Y-60262370D01*
X101080686Y-59954593D01*
X100075611Y-59840707D01*
X99067630Y-59925090D01*
X98095480Y-60204499D01*
X97196519Y-60668197D01*
X97070783Y-60752212D01*
X96554634Y-61375029D01*
X68445366Y-61375029D01*
X67929217Y-60752212D01*
X67044232Y-60262370D01*
X66080686Y-59954593D01*
X65075611Y-59840707D01*
X64067630Y-59925090D01*
X63095480Y-60204499D01*
X62196519Y-60668197D01*
X62070783Y-60752212D01*
X61554634Y-61375029D01*
X50660000Y-61375029D01*
X50660000Y-33624971D01*
X61554634Y-33624971D01*
X62070783Y-34247788D01*
X62955768Y-34737630D01*
X63919314Y-35045407D01*
X64924389Y-35159293D01*
X65932370Y-35074910D01*
X66904520Y-34795501D01*
X67803481Y-34331803D01*
X67929217Y-34247788D01*
X68445366Y-33624971D01*
X96554634Y-33624971D01*
X97070783Y-34247788D01*
X97955768Y-34737630D01*
X98919314Y-35045407D01*
X99924389Y-35159293D01*
X100932370Y-35074910D01*
X101904520Y-34795501D01*
X102803481Y-34331803D01*
X102929217Y-34247788D01*
X103445366Y-33624971D01*
X131554634Y-33624971D01*
X132070783Y-34247788D01*
X132955768Y-34737630D01*
X133919314Y-35045407D01*
X134924389Y-35159293D01*
X135932370Y-35074910D01*
X136904520Y-34795501D01*
X137803481Y-34331803D01*
X137929217Y-34247788D01*
X138445366Y-33624971D01*
X135000000Y-30179605D01*
X131554634Y-33624971D01*
X103445366Y-33624971D01*
X100000000Y-30179605D01*
X96554634Y-33624971D01*
X68445366Y-33624971D01*
X65000000Y-30179605D01*
X61554634Y-33624971D01*
X50660000Y-33624971D01*
X50660000Y-29924389D01*
X59840707Y-29924389D01*
X59925090Y-30932370D01*
X60204499Y-31904520D01*
X60668197Y-32803481D01*
X60752212Y-32929217D01*
X61375029Y-33445366D01*
X64820395Y-30000000D01*
X65179605Y-30000000D01*
X68624971Y-33445366D01*
X69247788Y-32929217D01*
X69737630Y-32044232D01*
X70045407Y-31080686D01*
X70159293Y-30075611D01*
X70146634Y-29924389D01*
X94840707Y-29924389D01*
X94925090Y-30932370D01*
X95204499Y-31904520D01*
X95668197Y-32803481D01*
X95752212Y-32929217D01*
X96375029Y-33445366D01*
X99820395Y-30000000D01*
X100179605Y-30000000D01*
X103624971Y-33445366D01*
X104247788Y-32929217D01*
X104737630Y-32044232D01*
X105045407Y-31080686D01*
X105159293Y-30075611D01*
X105146634Y-29924389D01*
X129840707Y-29924389D01*
X129925090Y-30932370D01*
X130204499Y-31904520D01*
X130668197Y-32803481D01*
X130752212Y-32929217D01*
X131375029Y-33445366D01*
X134820395Y-30000000D01*
X135179605Y-30000000D01*
X138624971Y-33445366D01*
X139247788Y-32929217D01*
X139737630Y-32044232D01*
X140045407Y-31080686D01*
X140159293Y-30075611D01*
X140074910Y-29067630D01*
X139795501Y-28095480D01*
X139331803Y-27196519D01*
X139247788Y-27070783D01*
X138624971Y-26554634D01*
X135179605Y-30000000D01*
X134820395Y-30000000D01*
X131375029Y-26554634D01*
X130752212Y-27070783D01*
X130262370Y-27955768D01*
X129954593Y-28919314D01*
X129840707Y-29924389D01*
X105146634Y-29924389D01*
X105074910Y-29067630D01*
X104795501Y-28095480D01*
X104331803Y-27196519D01*
X104247788Y-27070783D01*
X103624971Y-26554634D01*
X100179605Y-30000000D01*
X99820395Y-30000000D01*
X96375029Y-26554634D01*
X95752212Y-27070783D01*
X95262370Y-27955768D01*
X94954593Y-28919314D01*
X94840707Y-29924389D01*
X70146634Y-29924389D01*
X70074910Y-29067630D01*
X69795501Y-28095480D01*
X69331803Y-27196519D01*
X69247788Y-27070783D01*
X68624971Y-26554634D01*
X65179605Y-30000000D01*
X64820395Y-30000000D01*
X61375029Y-26554634D01*
X60752212Y-27070783D01*
X60262370Y-27955768D01*
X59954593Y-28919314D01*
X59840707Y-29924389D01*
X50660000Y-29924389D01*
X50660000Y-26375029D01*
X61554634Y-26375029D01*
X65000000Y-29820395D01*
X68445366Y-26375029D01*
X96554634Y-26375029D01*
X100000000Y-29820395D01*
X103445366Y-26375029D01*
X131554634Y-26375029D01*
X135000000Y-29820395D01*
X138445366Y-26375029D01*
X137929217Y-25752212D01*
X137044232Y-25262370D01*
X136080686Y-24954593D01*
X135075611Y-24840707D01*
X134067630Y-24925090D01*
X133095480Y-25204499D01*
X132196519Y-25668197D01*
X132070783Y-25752212D01*
X131554634Y-26375029D01*
X103445366Y-26375029D01*
X102929217Y-25752212D01*
X102044232Y-25262370D01*
X101080686Y-24954593D01*
X100075611Y-24840707D01*
X99067630Y-24925090D01*
X98095480Y-25204499D01*
X97196519Y-25668197D01*
X97070783Y-25752212D01*
X96554634Y-26375029D01*
X68445366Y-26375029D01*
X67929217Y-25752212D01*
X67044232Y-25262370D01*
X66080686Y-24954593D01*
X65075611Y-24840707D01*
X64067630Y-24925090D01*
X63095480Y-25204499D01*
X62196519Y-25668197D01*
X62070783Y-25752212D01*
X61554634Y-26375029D01*
X50660000Y-26375029D01*
X50660000Y-4211938D01*
X50798477Y-4471011D01*
X51127759Y-4872241D01*
X51528989Y-5201523D01*
X51986750Y-5446201D01*
X52483450Y-5596873D01*
X52870558Y-5635000D01*
X55929442Y-5635000D01*
X56316550Y-5596873D01*
X56813250Y-5446201D01*
X57271011Y-5201523D01*
X57672241Y-4872241D01*
X58001523Y-4471011D01*
X58246201Y-4013250D01*
X58396873Y-3516550D01*
X58447749Y-3000000D01*
X58396873Y-2483450D01*
X58246201Y-1986750D01*
X58001523Y-1528989D01*
X57672241Y-1127759D01*
X57271011Y-798477D01*
X57011938Y-660000D01*
X142988062Y-660000D01*
X142728989Y-798477D01*
%TD*%
M02*
