M48
; DRILL file {KiCad 5.1.6-c6e7f7d~87~ubuntu20.04.1} date Sun Oct 18 19:28:00 2020
; FORMAT={-:-/ absolute / inch / decimal}
; #@! TF.CreationDate,2020-10-18T19:28:00-04:00
; #@! TF.GenerationSoftware,Kicad,Pcbnew,5.1.6-c6e7f7d~87~ubuntu20.04.1
; #@! TF.FileFunction,Plated,1,2,PTH
FMAT,2
INCH
T1C0.1260
T2C0.2756
T3C0.3937
%
G90
G05
T2
X2.5591Y-1.1811
X3.937Y-1.1811
X3.937Y-2.5591
X5.315Y-2.5591
X4.626Y-5.315
X2.5591Y-2.5591
X5.315Y-1.1811
X2.5591Y-4.1339
X2.5591Y-5.315
X4.626Y-4.1339
T3
X3.4449Y-6.8898
X4.4291Y-6.8898
X5.4134Y-6.8898
X2.4606Y-6.8898
T1
G00X2.0866Y-0.1181
M15
G01X2.1969Y-0.1181
M16
G05
G00X2.0866Y-7.7559
M15
G01X2.1969Y-7.7559
M16
G05
G00X5.7874Y-0.1181
M15
G01X5.6772Y-0.1181
M16
G05
G00X5.7874Y-7.7559
M15
G01X5.6772Y-7.7559
M16
G05
T0
M30
