G04 #@! TF.GenerationSoftware,KiCad,Pcbnew,5.1.6-c6e7f7d~87~ubuntu20.04.1*
G04 #@! TF.CreationDate,2020-10-18T21:18:21-04:00*
G04 #@! TF.ProjectId,jackboard4,6a61636b-626f-4617-9264-342e6b696361,rev?*
G04 #@! TF.SameCoordinates,Original*
G04 #@! TF.FileFunction,Soldermask,Top*
G04 #@! TF.FilePolarity,Negative*
%FSLAX46Y46*%
G04 Gerber Fmt 4.6, Leading zero omitted, Abs format (unit mm)*
G04 Created by KiCad (PCBNEW 5.1.6-c6e7f7d~87~ubuntu20.04.1) date 2020-10-18 21:18:21*
%MOMM*%
%LPD*%
G01*
G04 APERTURE LIST*
%ADD10C,0.100000*%
G04 APERTURE END LIST*
D10*
G36*
X165458903Y-199153213D02*
G01*
X165681177Y-199197426D01*
X166099932Y-199370880D01*
X166476802Y-199622696D01*
X166797304Y-199943198D01*
X167049120Y-200320068D01*
X167222574Y-200738823D01*
X167311000Y-201183371D01*
X167311000Y-201636629D01*
X167222574Y-202081177D01*
X167049120Y-202499932D01*
X166797304Y-202876802D01*
X166476802Y-203197304D01*
X166099932Y-203449120D01*
X165681177Y-203622574D01*
X165458903Y-203666787D01*
X165236630Y-203711000D01*
X164783370Y-203711000D01*
X164561097Y-203666787D01*
X164338823Y-203622574D01*
X163920068Y-203449120D01*
X163543198Y-203197304D01*
X163222696Y-202876802D01*
X162970880Y-202499932D01*
X162797426Y-202081177D01*
X162709000Y-201636629D01*
X162709000Y-201183371D01*
X162797426Y-200738823D01*
X162970880Y-200320068D01*
X163222696Y-199943198D01*
X163543198Y-199622696D01*
X163920068Y-199370880D01*
X164338823Y-199197426D01*
X164561097Y-199153213D01*
X164783370Y-199109000D01*
X165236630Y-199109000D01*
X165458903Y-199153213D01*
G37*
G36*
X190458903Y-199153213D02*
G01*
X190681177Y-199197426D01*
X191099932Y-199370880D01*
X191476802Y-199622696D01*
X191797304Y-199943198D01*
X192049120Y-200320068D01*
X192222574Y-200738823D01*
X192311000Y-201183371D01*
X192311000Y-201636629D01*
X192222574Y-202081177D01*
X192049120Y-202499932D01*
X191797304Y-202876802D01*
X191476802Y-203197304D01*
X191099932Y-203449120D01*
X190681177Y-203622574D01*
X190458903Y-203666787D01*
X190236630Y-203711000D01*
X189783370Y-203711000D01*
X189561097Y-203666787D01*
X189338823Y-203622574D01*
X188920068Y-203449120D01*
X188543198Y-203197304D01*
X188222696Y-202876802D01*
X187970880Y-202499932D01*
X187797426Y-202081177D01*
X187709000Y-201636629D01*
X187709000Y-201183371D01*
X187797426Y-200738823D01*
X187970880Y-200320068D01*
X188222696Y-199943198D01*
X188543198Y-199622696D01*
X188920068Y-199370880D01*
X189338823Y-199197426D01*
X189561097Y-199153213D01*
X189783370Y-199109000D01*
X190236630Y-199109000D01*
X190458903Y-199153213D01*
G37*
G36*
X240458903Y-199153213D02*
G01*
X240681177Y-199197426D01*
X241099932Y-199370880D01*
X241476802Y-199622696D01*
X241797304Y-199943198D01*
X242049120Y-200320068D01*
X242222574Y-200738823D01*
X242311000Y-201183371D01*
X242311000Y-201636629D01*
X242222574Y-202081177D01*
X242049120Y-202499932D01*
X241797304Y-202876802D01*
X241476802Y-203197304D01*
X241099932Y-203449120D01*
X240681177Y-203622574D01*
X240458903Y-203666787D01*
X240236630Y-203711000D01*
X239783370Y-203711000D01*
X239561097Y-203666787D01*
X239338823Y-203622574D01*
X238920068Y-203449120D01*
X238543198Y-203197304D01*
X238222696Y-202876802D01*
X237970880Y-202499932D01*
X237797426Y-202081177D01*
X237709000Y-201636629D01*
X237709000Y-201183371D01*
X237797426Y-200738823D01*
X237970880Y-200320068D01*
X238222696Y-199943198D01*
X238543198Y-199622696D01*
X238920068Y-199370880D01*
X239338823Y-199197426D01*
X239561097Y-199153213D01*
X239783370Y-199109000D01*
X240236630Y-199109000D01*
X240458903Y-199153213D01*
G37*
G36*
X215458903Y-199153213D02*
G01*
X215681177Y-199197426D01*
X216099932Y-199370880D01*
X216476802Y-199622696D01*
X216797304Y-199943198D01*
X217049120Y-200320068D01*
X217222574Y-200738823D01*
X217311000Y-201183371D01*
X217311000Y-201636629D01*
X217222574Y-202081177D01*
X217049120Y-202499932D01*
X216797304Y-202876802D01*
X216476802Y-203197304D01*
X216099932Y-203449120D01*
X215681177Y-203622574D01*
X215458903Y-203666787D01*
X215236630Y-203711000D01*
X214783370Y-203711000D01*
X214561097Y-203666787D01*
X214338823Y-203622574D01*
X213920068Y-203449120D01*
X213543198Y-203197304D01*
X213222696Y-202876802D01*
X212970880Y-202499932D01*
X212797426Y-202081177D01*
X212709000Y-201636629D01*
X212709000Y-201183371D01*
X212797426Y-200738823D01*
X212970880Y-200320068D01*
X213222696Y-199943198D01*
X213543198Y-199622696D01*
X213920068Y-199370880D01*
X214338823Y-199197426D01*
X214561097Y-199153213D01*
X214783370Y-199109000D01*
X215236630Y-199109000D01*
X215458903Y-199153213D01*
G37*
G36*
X199551000Y-202051000D02*
G01*
X194949000Y-202051000D01*
X194949000Y-197449000D01*
X199551000Y-197449000D01*
X199551000Y-202051000D01*
G37*
G36*
X174551000Y-202051000D02*
G01*
X169949000Y-202051000D01*
X169949000Y-197449000D01*
X174551000Y-197449000D01*
X174551000Y-202051000D01*
G37*
G36*
X249551000Y-202051000D02*
G01*
X244949000Y-202051000D01*
X244949000Y-197449000D01*
X249551000Y-197449000D01*
X249551000Y-202051000D01*
G37*
G36*
X224551000Y-202051000D02*
G01*
X219949000Y-202051000D01*
X219949000Y-197449000D01*
X224551000Y-197449000D01*
X224551000Y-202051000D01*
G37*
G36*
X211558903Y-193253213D02*
G01*
X211781177Y-193297426D01*
X212199932Y-193470880D01*
X212576802Y-193722696D01*
X212897304Y-194043198D01*
X213149120Y-194420068D01*
X213322574Y-194838823D01*
X213411000Y-195283371D01*
X213411000Y-195736629D01*
X213322574Y-196181177D01*
X213149120Y-196599932D01*
X212897304Y-196976802D01*
X212576802Y-197297304D01*
X212199932Y-197549120D01*
X211781177Y-197722574D01*
X211558903Y-197766787D01*
X211336630Y-197811000D01*
X210883370Y-197811000D01*
X210661097Y-197766787D01*
X210438823Y-197722574D01*
X210020068Y-197549120D01*
X209643198Y-197297304D01*
X209322696Y-196976802D01*
X209070880Y-196599932D01*
X208897426Y-196181177D01*
X208809000Y-195736629D01*
X208809000Y-195283371D01*
X208897426Y-194838823D01*
X209070880Y-194420068D01*
X209322696Y-194043198D01*
X209643198Y-193722696D01*
X210020068Y-193470880D01*
X210438823Y-193297426D01*
X210661097Y-193253213D01*
X210883370Y-193209000D01*
X211336630Y-193209000D01*
X211558903Y-193253213D01*
G37*
G36*
X161558903Y-193253213D02*
G01*
X161781177Y-193297426D01*
X162199932Y-193470880D01*
X162576802Y-193722696D01*
X162897304Y-194043198D01*
X163149120Y-194420068D01*
X163322574Y-194838823D01*
X163411000Y-195283371D01*
X163411000Y-195736629D01*
X163322574Y-196181177D01*
X163149120Y-196599932D01*
X162897304Y-196976802D01*
X162576802Y-197297304D01*
X162199932Y-197549120D01*
X161781177Y-197722574D01*
X161558903Y-197766787D01*
X161336630Y-197811000D01*
X160883370Y-197811000D01*
X160661097Y-197766787D01*
X160438823Y-197722574D01*
X160020068Y-197549120D01*
X159643198Y-197297304D01*
X159322696Y-196976802D01*
X159070880Y-196599932D01*
X158897426Y-196181177D01*
X158809000Y-195736629D01*
X158809000Y-195283371D01*
X158897426Y-194838823D01*
X159070880Y-194420068D01*
X159322696Y-194043198D01*
X159643198Y-193722696D01*
X160020068Y-193470880D01*
X160438823Y-193297426D01*
X160661097Y-193253213D01*
X160883370Y-193209000D01*
X161336630Y-193209000D01*
X161558903Y-193253213D01*
G37*
G36*
X186558903Y-193253213D02*
G01*
X186781177Y-193297426D01*
X187199932Y-193470880D01*
X187576802Y-193722696D01*
X187897304Y-194043198D01*
X188149120Y-194420068D01*
X188322574Y-194838823D01*
X188411000Y-195283371D01*
X188411000Y-195736629D01*
X188322574Y-196181177D01*
X188149120Y-196599932D01*
X187897304Y-196976802D01*
X187576802Y-197297304D01*
X187199932Y-197549120D01*
X186781177Y-197722574D01*
X186558903Y-197766787D01*
X186336630Y-197811000D01*
X185883370Y-197811000D01*
X185661097Y-197766787D01*
X185438823Y-197722574D01*
X185020068Y-197549120D01*
X184643198Y-197297304D01*
X184322696Y-196976802D01*
X184070880Y-196599932D01*
X183897426Y-196181177D01*
X183809000Y-195736629D01*
X183809000Y-195283371D01*
X183897426Y-194838823D01*
X184070880Y-194420068D01*
X184322696Y-194043198D01*
X184643198Y-193722696D01*
X185020068Y-193470880D01*
X185438823Y-193297426D01*
X185661097Y-193253213D01*
X185883370Y-193209000D01*
X186336630Y-193209000D01*
X186558903Y-193253213D01*
G37*
G36*
X236558903Y-193253213D02*
G01*
X236781177Y-193297426D01*
X237199932Y-193470880D01*
X237576802Y-193722696D01*
X237897304Y-194043198D01*
X238149120Y-194420068D01*
X238322574Y-194838823D01*
X238411000Y-195283371D01*
X238411000Y-195736629D01*
X238322574Y-196181177D01*
X238149120Y-196599932D01*
X237897304Y-196976802D01*
X237576802Y-197297304D01*
X237199932Y-197549120D01*
X236781177Y-197722574D01*
X236558903Y-197766787D01*
X236336630Y-197811000D01*
X235883370Y-197811000D01*
X235661097Y-197766787D01*
X235438823Y-197722574D01*
X235020068Y-197549120D01*
X234643198Y-197297304D01*
X234322696Y-196976802D01*
X234070880Y-196599932D01*
X233897426Y-196181177D01*
X233809000Y-195736629D01*
X233809000Y-195283371D01*
X233897426Y-194838823D01*
X234070880Y-194420068D01*
X234322696Y-194043198D01*
X234643198Y-193722696D01*
X235020068Y-193470880D01*
X235438823Y-193297426D01*
X235661097Y-193253213D01*
X235883370Y-193209000D01*
X236336630Y-193209000D01*
X236558903Y-193253213D01*
G37*
G36*
X174358903Y-190253213D02*
G01*
X174581177Y-190297426D01*
X174999932Y-190470880D01*
X175376802Y-190722696D01*
X175697304Y-191043198D01*
X175949120Y-191420068D01*
X176122574Y-191838823D01*
X176211000Y-192283371D01*
X176211000Y-192736629D01*
X176122574Y-193181177D01*
X175949120Y-193599932D01*
X175697304Y-193976802D01*
X175376802Y-194297304D01*
X174999932Y-194549120D01*
X174581177Y-194722574D01*
X174358903Y-194766787D01*
X174136630Y-194811000D01*
X173683370Y-194811000D01*
X173461097Y-194766787D01*
X173238823Y-194722574D01*
X172820068Y-194549120D01*
X172443198Y-194297304D01*
X172122696Y-193976802D01*
X171870880Y-193599932D01*
X171697426Y-193181177D01*
X171609000Y-192736629D01*
X171609000Y-192283371D01*
X171697426Y-191838823D01*
X171870880Y-191420068D01*
X172122696Y-191043198D01*
X172443198Y-190722696D01*
X172820068Y-190470880D01*
X173238823Y-190297426D01*
X173461097Y-190253213D01*
X173683370Y-190209000D01*
X174136630Y-190209000D01*
X174358903Y-190253213D01*
G37*
G36*
X199358903Y-190253213D02*
G01*
X199581177Y-190297426D01*
X199999932Y-190470880D01*
X200376802Y-190722696D01*
X200697304Y-191043198D01*
X200949120Y-191420068D01*
X201122574Y-191838823D01*
X201211000Y-192283371D01*
X201211000Y-192736629D01*
X201122574Y-193181177D01*
X200949120Y-193599932D01*
X200697304Y-193976802D01*
X200376802Y-194297304D01*
X199999932Y-194549120D01*
X199581177Y-194722574D01*
X199358903Y-194766787D01*
X199136630Y-194811000D01*
X198683370Y-194811000D01*
X198461097Y-194766787D01*
X198238823Y-194722574D01*
X197820068Y-194549120D01*
X197443198Y-194297304D01*
X197122696Y-193976802D01*
X196870880Y-193599932D01*
X196697426Y-193181177D01*
X196609000Y-192736629D01*
X196609000Y-192283371D01*
X196697426Y-191838823D01*
X196870880Y-191420068D01*
X197122696Y-191043198D01*
X197443198Y-190722696D01*
X197820068Y-190470880D01*
X198238823Y-190297426D01*
X198461097Y-190253213D01*
X198683370Y-190209000D01*
X199136630Y-190209000D01*
X199358903Y-190253213D01*
G37*
G36*
X249358903Y-190253213D02*
G01*
X249581177Y-190297426D01*
X249999932Y-190470880D01*
X250376802Y-190722696D01*
X250697304Y-191043198D01*
X250949120Y-191420068D01*
X251122574Y-191838823D01*
X251211000Y-192283371D01*
X251211000Y-192736629D01*
X251122574Y-193181177D01*
X250949120Y-193599932D01*
X250697304Y-193976802D01*
X250376802Y-194297304D01*
X249999932Y-194549120D01*
X249581177Y-194722574D01*
X249358903Y-194766787D01*
X249136630Y-194811000D01*
X248683370Y-194811000D01*
X248461097Y-194766787D01*
X248238823Y-194722574D01*
X247820068Y-194549120D01*
X247443198Y-194297304D01*
X247122696Y-193976802D01*
X246870880Y-193599932D01*
X246697426Y-193181177D01*
X246609000Y-192736629D01*
X246609000Y-192283371D01*
X246697426Y-191838823D01*
X246870880Y-191420068D01*
X247122696Y-191043198D01*
X247443198Y-190722696D01*
X247820068Y-190470880D01*
X248238823Y-190297426D01*
X248461097Y-190253213D01*
X248683370Y-190209000D01*
X249136630Y-190209000D01*
X249358903Y-190253213D01*
G37*
G36*
X224358903Y-190253213D02*
G01*
X224581177Y-190297426D01*
X224999932Y-190470880D01*
X225376802Y-190722696D01*
X225697304Y-191043198D01*
X225949120Y-191420068D01*
X226122574Y-191838823D01*
X226211000Y-192283371D01*
X226211000Y-192736629D01*
X226122574Y-193181177D01*
X225949120Y-193599932D01*
X225697304Y-193976802D01*
X225376802Y-194297304D01*
X224999932Y-194549120D01*
X224581177Y-194722574D01*
X224358903Y-194766787D01*
X224136630Y-194811000D01*
X223683370Y-194811000D01*
X223461097Y-194766787D01*
X223238823Y-194722574D01*
X222820068Y-194549120D01*
X222443198Y-194297304D01*
X222122696Y-193976802D01*
X221870880Y-193599932D01*
X221697426Y-193181177D01*
X221609000Y-192736629D01*
X221609000Y-192283371D01*
X221697426Y-191838823D01*
X221870880Y-191420068D01*
X222122696Y-191043198D01*
X222443198Y-190722696D01*
X222820068Y-190470880D01*
X223238823Y-190297426D01*
X223461097Y-190253213D01*
X223683370Y-190209000D01*
X224136630Y-190209000D01*
X224358903Y-190253213D01*
G37*
G36*
X168458903Y-186353213D02*
G01*
X168681177Y-186397426D01*
X169099932Y-186570880D01*
X169476802Y-186822696D01*
X169797304Y-187143198D01*
X170049120Y-187520068D01*
X170222574Y-187938823D01*
X170311000Y-188383371D01*
X170311000Y-188836629D01*
X170222574Y-189281177D01*
X170049120Y-189699932D01*
X169797304Y-190076802D01*
X169476802Y-190397304D01*
X169099932Y-190649120D01*
X168681177Y-190822574D01*
X168458903Y-190866787D01*
X168236630Y-190911000D01*
X167783370Y-190911000D01*
X167561097Y-190866787D01*
X167338823Y-190822574D01*
X166920068Y-190649120D01*
X166543198Y-190397304D01*
X166222696Y-190076802D01*
X165970880Y-189699932D01*
X165797426Y-189281177D01*
X165709000Y-188836629D01*
X165709000Y-188383371D01*
X165797426Y-187938823D01*
X165970880Y-187520068D01*
X166222696Y-187143198D01*
X166543198Y-186822696D01*
X166920068Y-186570880D01*
X167338823Y-186397426D01*
X167561097Y-186353213D01*
X167783370Y-186309000D01*
X168236630Y-186309000D01*
X168458903Y-186353213D01*
G37*
G36*
X193458903Y-186353213D02*
G01*
X193681177Y-186397426D01*
X194099932Y-186570880D01*
X194476802Y-186822696D01*
X194797304Y-187143198D01*
X195049120Y-187520068D01*
X195222574Y-187938823D01*
X195311000Y-188383371D01*
X195311000Y-188836629D01*
X195222574Y-189281177D01*
X195049120Y-189699932D01*
X194797304Y-190076802D01*
X194476802Y-190397304D01*
X194099932Y-190649120D01*
X193681177Y-190822574D01*
X193458903Y-190866787D01*
X193236630Y-190911000D01*
X192783370Y-190911000D01*
X192561097Y-190866787D01*
X192338823Y-190822574D01*
X191920068Y-190649120D01*
X191543198Y-190397304D01*
X191222696Y-190076802D01*
X190970880Y-189699932D01*
X190797426Y-189281177D01*
X190709000Y-188836629D01*
X190709000Y-188383371D01*
X190797426Y-187938823D01*
X190970880Y-187520068D01*
X191222696Y-187143198D01*
X191543198Y-186822696D01*
X191920068Y-186570880D01*
X192338823Y-186397426D01*
X192561097Y-186353213D01*
X192783370Y-186309000D01*
X193236630Y-186309000D01*
X193458903Y-186353213D01*
G37*
G36*
X243458903Y-186353213D02*
G01*
X243681177Y-186397426D01*
X244099932Y-186570880D01*
X244476802Y-186822696D01*
X244797304Y-187143198D01*
X245049120Y-187520068D01*
X245222574Y-187938823D01*
X245311000Y-188383371D01*
X245311000Y-188836629D01*
X245222574Y-189281177D01*
X245049120Y-189699932D01*
X244797304Y-190076802D01*
X244476802Y-190397304D01*
X244099932Y-190649120D01*
X243681177Y-190822574D01*
X243458903Y-190866787D01*
X243236630Y-190911000D01*
X242783370Y-190911000D01*
X242561097Y-190866787D01*
X242338823Y-190822574D01*
X241920068Y-190649120D01*
X241543198Y-190397304D01*
X241222696Y-190076802D01*
X240970880Y-189699932D01*
X240797426Y-189281177D01*
X240709000Y-188836629D01*
X240709000Y-188383371D01*
X240797426Y-187938823D01*
X240970880Y-187520068D01*
X241222696Y-187143198D01*
X241543198Y-186822696D01*
X241920068Y-186570880D01*
X242338823Y-186397426D01*
X242561097Y-186353213D01*
X242783370Y-186309000D01*
X243236630Y-186309000D01*
X243458903Y-186353213D01*
G37*
G36*
X218458903Y-186353213D02*
G01*
X218681177Y-186397426D01*
X219099932Y-186570880D01*
X219476802Y-186822696D01*
X219797304Y-187143198D01*
X220049120Y-187520068D01*
X220222574Y-187938823D01*
X220311000Y-188383371D01*
X220311000Y-188836629D01*
X220222574Y-189281177D01*
X220049120Y-189699932D01*
X219797304Y-190076802D01*
X219476802Y-190397304D01*
X219099932Y-190649120D01*
X218681177Y-190822574D01*
X218458903Y-190866787D01*
X218236630Y-190911000D01*
X217783370Y-190911000D01*
X217561097Y-190866787D01*
X217338823Y-190822574D01*
X216920068Y-190649120D01*
X216543198Y-190397304D01*
X216222696Y-190076802D01*
X215970880Y-189699932D01*
X215797426Y-189281177D01*
X215709000Y-188836629D01*
X215709000Y-188383371D01*
X215797426Y-187938823D01*
X215970880Y-187520068D01*
X216222696Y-187143198D01*
X216543198Y-186822696D01*
X216920068Y-186570880D01*
X217338823Y-186397426D01*
X217561097Y-186353213D01*
X217783370Y-186309000D01*
X218236630Y-186309000D01*
X218458903Y-186353213D01*
G37*
G36*
X202493512Y-182603927D02*
G01*
X202642812Y-182633624D01*
X202806784Y-182701544D01*
X202954354Y-182800147D01*
X203079853Y-182925646D01*
X203178456Y-183073216D01*
X203246376Y-183237188D01*
X203281000Y-183411259D01*
X203281000Y-183588741D01*
X203246376Y-183762812D01*
X203178456Y-183926784D01*
X203079853Y-184074354D01*
X202954354Y-184199853D01*
X202806784Y-184298456D01*
X202642812Y-184366376D01*
X202493512Y-184396073D01*
X202468742Y-184401000D01*
X202291258Y-184401000D01*
X202266488Y-184396073D01*
X202117188Y-184366376D01*
X201953216Y-184298456D01*
X201805646Y-184199853D01*
X201680147Y-184074354D01*
X201581544Y-183926784D01*
X201513624Y-183762812D01*
X201479000Y-183588741D01*
X201479000Y-183411259D01*
X201513624Y-183237188D01*
X201581544Y-183073216D01*
X201680147Y-182925646D01*
X201805646Y-182800147D01*
X201953216Y-182701544D01*
X202117188Y-182633624D01*
X202266488Y-182603927D01*
X202291258Y-182599000D01*
X202468742Y-182599000D01*
X202493512Y-182603927D01*
G37*
G36*
X205033512Y-182603927D02*
G01*
X205182812Y-182633624D01*
X205346784Y-182701544D01*
X205494354Y-182800147D01*
X205619853Y-182925646D01*
X205718456Y-183073216D01*
X205786376Y-183237188D01*
X205821000Y-183411259D01*
X205821000Y-183588741D01*
X205786376Y-183762812D01*
X205718456Y-183926784D01*
X205619853Y-184074354D01*
X205494354Y-184199853D01*
X205346784Y-184298456D01*
X205182812Y-184366376D01*
X205033512Y-184396073D01*
X205008742Y-184401000D01*
X204831258Y-184401000D01*
X204806488Y-184396073D01*
X204657188Y-184366376D01*
X204493216Y-184298456D01*
X204345646Y-184199853D01*
X204220147Y-184074354D01*
X204121544Y-183926784D01*
X204053624Y-183762812D01*
X204019000Y-183588741D01*
X204019000Y-183411259D01*
X204053624Y-183237188D01*
X204121544Y-183073216D01*
X204220147Y-182925646D01*
X204345646Y-182800147D01*
X204493216Y-182701544D01*
X204657188Y-182633624D01*
X204806488Y-182603927D01*
X204831258Y-182599000D01*
X205008742Y-182599000D01*
X205033512Y-182603927D01*
G37*
G36*
X207573512Y-182603927D02*
G01*
X207722812Y-182633624D01*
X207886784Y-182701544D01*
X208034354Y-182800147D01*
X208159853Y-182925646D01*
X208258456Y-183073216D01*
X208326376Y-183237188D01*
X208361000Y-183411259D01*
X208361000Y-183588741D01*
X208326376Y-183762812D01*
X208258456Y-183926784D01*
X208159853Y-184074354D01*
X208034354Y-184199853D01*
X207886784Y-184298456D01*
X207722812Y-184366376D01*
X207573512Y-184396073D01*
X207548742Y-184401000D01*
X207371258Y-184401000D01*
X207346488Y-184396073D01*
X207197188Y-184366376D01*
X207033216Y-184298456D01*
X206885646Y-184199853D01*
X206760147Y-184074354D01*
X206661544Y-183926784D01*
X206593624Y-183762812D01*
X206559000Y-183588741D01*
X206559000Y-183411259D01*
X206593624Y-183237188D01*
X206661544Y-183073216D01*
X206760147Y-182925646D01*
X206885646Y-182800147D01*
X207033216Y-182701544D01*
X207197188Y-182633624D01*
X207346488Y-182603927D01*
X207371258Y-182599000D01*
X207548742Y-182599000D01*
X207573512Y-182603927D01*
G37*
G36*
X210901000Y-184401000D02*
G01*
X209099000Y-184401000D01*
X209099000Y-182599000D01*
X210901000Y-182599000D01*
X210901000Y-184401000D01*
G37*
G36*
X199953512Y-182603927D02*
G01*
X200102812Y-182633624D01*
X200266784Y-182701544D01*
X200414354Y-182800147D01*
X200539853Y-182925646D01*
X200638456Y-183073216D01*
X200706376Y-183237188D01*
X200741000Y-183411259D01*
X200741000Y-183588741D01*
X200706376Y-183762812D01*
X200638456Y-183926784D01*
X200539853Y-184074354D01*
X200414354Y-184199853D01*
X200266784Y-184298456D01*
X200102812Y-184366376D01*
X199953512Y-184396073D01*
X199928742Y-184401000D01*
X199751258Y-184401000D01*
X199726488Y-184396073D01*
X199577188Y-184366376D01*
X199413216Y-184298456D01*
X199265646Y-184199853D01*
X199140147Y-184074354D01*
X199041544Y-183926784D01*
X198973624Y-183762812D01*
X198939000Y-183588741D01*
X198939000Y-183411259D01*
X198973624Y-183237188D01*
X199041544Y-183073216D01*
X199140147Y-182925646D01*
X199265646Y-182800147D01*
X199413216Y-182701544D01*
X199577188Y-182633624D01*
X199726488Y-182603927D01*
X199751258Y-182599000D01*
X199928742Y-182599000D01*
X199953512Y-182603927D01*
G37*
M02*
