M48
; DRILL file {KiCad 5.1.6-c6e7f7d~87~ubuntu20.04.1} date Sun Oct 18 21:18:23 2020
; FORMAT={-:-/ absolute / inch / decimal}
; #@! TF.CreationDate,2020-10-18T21:18:23-04:00
; #@! TF.GenerationSoftware,Kicad,Pcbnew,5.1.6-c6e7f7d~87~ubuntu20.04.1
; #@! TF.FileFunction,Plated,1,2,PTH
FMAT,2
INCH
T1C0.0394
T2C0.1063
%
G90
G05
T1
X7.8677Y-7.2244
X7.9677Y-7.2244
X8.0677Y-7.2244
X8.1677Y-7.2244
X8.2677Y-7.2244
T2
X6.3429Y-7.6972
X6.4965Y-7.9295
X6.6146Y-7.4256
X6.7815Y-7.8642
X6.8469Y-7.5791
X7.3272Y-7.6972
X7.4807Y-7.9295
X7.5988Y-7.4256
X7.7657Y-7.8642
X7.8311Y-7.5791
X9.2957Y-7.6972
X9.4492Y-7.9295
X9.5673Y-7.4256
X9.7343Y-7.8642
X9.7996Y-7.5791
X8.3114Y-7.6972
X8.465Y-7.9295
X8.5831Y-7.4256
X8.75Y-7.8642
X8.8154Y-7.5791
T0
M30
