G04 #@! TF.GenerationSoftware,KiCad,Pcbnew,5.1.6-c6e7f7d~87~ubuntu20.04.1*
G04 #@! TF.CreationDate,2020-10-18T21:18:21-04:00*
G04 #@! TF.ProjectId,jackboard4,6a61636b-626f-4617-9264-342e6b696361,rev?*
G04 #@! TF.SameCoordinates,Original*
G04 #@! TF.FileFunction,Legend,Bot*
G04 #@! TF.FilePolarity,Positive*
%FSLAX46Y46*%
G04 Gerber Fmt 4.6, Leading zero omitted, Abs format (unit mm)*
G04 Created by KiCad (PCBNEW 5.1.6-c6e7f7d~87~ubuntu20.04.1) date 2020-10-18 21:18:21*
%MOMM*%
%LPD*%
G01*
G04 APERTURE LIST*
%ADD10C,0.150000*%
%ADD11C,0.120000*%
G04 APERTURE END LIST*
D10*
X249476190Y-184404761D02*
X250142857Y-183452380D01*
X250619047Y-184404761D02*
X250619047Y-182404761D01*
X249857142Y-182404761D01*
X249666666Y-182500000D01*
X249571428Y-182595238D01*
X249476190Y-182785714D01*
X249476190Y-183071428D01*
X249571428Y-183261904D01*
X249666666Y-183357142D01*
X249857142Y-183452380D01*
X250619047Y-183452380D01*
X248619047Y-184404761D02*
X248619047Y-183071428D01*
X248619047Y-182404761D02*
X248714285Y-182500000D01*
X248619047Y-182595238D01*
X248523809Y-182500000D01*
X248619047Y-182404761D01*
X248619047Y-182595238D01*
X246809523Y-184309523D02*
X247000000Y-184404761D01*
X247380952Y-184404761D01*
X247571428Y-184309523D01*
X247666666Y-184214285D01*
X247761904Y-184023809D01*
X247761904Y-183452380D01*
X247666666Y-183261904D01*
X247571428Y-183166666D01*
X247380952Y-183071428D01*
X247000000Y-183071428D01*
X246809523Y-183166666D01*
X245952380Y-184404761D02*
X245952380Y-182404761D01*
X245095238Y-184404761D02*
X245095238Y-183357142D01*
X245190476Y-183166666D01*
X245380952Y-183071428D01*
X245666666Y-183071428D01*
X245857142Y-183166666D01*
X245952380Y-183261904D01*
X242619047Y-184404761D02*
X242619047Y-182404761D01*
X242619047Y-183357142D02*
X241476190Y-183357142D01*
X241476190Y-184404761D02*
X241476190Y-182404761D01*
X240238095Y-184404761D02*
X240428571Y-184309523D01*
X240523809Y-184214285D01*
X240619047Y-184023809D01*
X240619047Y-183452380D01*
X240523809Y-183261904D01*
X240428571Y-183166666D01*
X240238095Y-183071428D01*
X239952380Y-183071428D01*
X239761904Y-183166666D01*
X239666666Y-183261904D01*
X239571428Y-183452380D01*
X239571428Y-184023809D01*
X239666666Y-184214285D01*
X239761904Y-184309523D01*
X239952380Y-184404761D01*
X240238095Y-184404761D01*
X238428571Y-184404761D02*
X238619047Y-184309523D01*
X238714285Y-184119047D01*
X238714285Y-182404761D01*
X237666666Y-184404761D02*
X237666666Y-183071428D01*
X237666666Y-183261904D02*
X237571428Y-183166666D01*
X237380952Y-183071428D01*
X237095238Y-183071428D01*
X236904761Y-183166666D01*
X236809523Y-183357142D01*
X236809523Y-184404761D01*
X236809523Y-183357142D02*
X236714285Y-183166666D01*
X236523809Y-183071428D01*
X236238095Y-183071428D01*
X236047619Y-183166666D01*
X235952380Y-183357142D01*
X235952380Y-184404761D01*
X234238095Y-184309523D02*
X234428571Y-184404761D01*
X234809523Y-184404761D01*
X235000000Y-184309523D01*
X235095238Y-184119047D01*
X235095238Y-183357142D01*
X235000000Y-183166666D01*
X234809523Y-183071428D01*
X234428571Y-183071428D01*
X234238095Y-183166666D01*
X234142857Y-183357142D01*
X234142857Y-183547619D01*
X235095238Y-183738095D01*
X233380952Y-184309523D02*
X233190476Y-184404761D01*
X232809523Y-184404761D01*
X232619047Y-184309523D01*
X232523809Y-184119047D01*
X232523809Y-184023809D01*
X232619047Y-183833333D01*
X232809523Y-183738095D01*
X233095238Y-183738095D01*
X233285714Y-183642857D01*
X233380952Y-183452380D01*
X233380952Y-183357142D01*
X233285714Y-183166666D01*
X233095238Y-183071428D01*
X232809523Y-183071428D01*
X232619047Y-183166666D01*
X228714285Y-182309523D02*
X230428571Y-184880952D01*
X226619047Y-184309523D02*
X226333333Y-184404761D01*
X225857142Y-184404761D01*
X225666666Y-184309523D01*
X225571428Y-184214285D01*
X225476190Y-184023809D01*
X225476190Y-183833333D01*
X225571428Y-183642857D01*
X225666666Y-183547619D01*
X225857142Y-183452380D01*
X226238095Y-183357142D01*
X226428571Y-183261904D01*
X226523809Y-183166666D01*
X226619047Y-182976190D01*
X226619047Y-182785714D01*
X226523809Y-182595238D01*
X226428571Y-182500000D01*
X226238095Y-182404761D01*
X225761904Y-182404761D01*
X225476190Y-182500000D01*
X223857142Y-184309523D02*
X224047619Y-184404761D01*
X224428571Y-184404761D01*
X224619047Y-184309523D01*
X224714285Y-184119047D01*
X224714285Y-183357142D01*
X224619047Y-183166666D01*
X224428571Y-183071428D01*
X224047619Y-183071428D01*
X223857142Y-183166666D01*
X223761904Y-183357142D01*
X223761904Y-183547619D01*
X224714285Y-183738095D01*
X222904761Y-183071428D02*
X222904761Y-185071428D01*
X222904761Y-183166666D02*
X222714285Y-183071428D01*
X222333333Y-183071428D01*
X222142857Y-183166666D01*
X222047619Y-183261904D01*
X221952380Y-183452380D01*
X221952380Y-184023809D01*
X222047619Y-184214285D01*
X222142857Y-184309523D01*
X222333333Y-184404761D01*
X222714285Y-184404761D01*
X222904761Y-184309523D01*
X219666666Y-182595238D02*
X219571428Y-182500000D01*
X219380952Y-182404761D01*
X218904761Y-182404761D01*
X218714285Y-182500000D01*
X218619047Y-182595238D01*
X218523809Y-182785714D01*
X218523809Y-182976190D01*
X218619047Y-183261904D01*
X219761904Y-184404761D01*
X218523809Y-184404761D01*
X217285714Y-182404761D02*
X217095238Y-182404761D01*
X216904761Y-182500000D01*
X216809523Y-182595238D01*
X216714285Y-182785714D01*
X216619047Y-183166666D01*
X216619047Y-183642857D01*
X216714285Y-184023809D01*
X216809523Y-184214285D01*
X216904761Y-184309523D01*
X217095238Y-184404761D01*
X217285714Y-184404761D01*
X217476190Y-184309523D01*
X217571428Y-184214285D01*
X217666666Y-184023809D01*
X217761904Y-183642857D01*
X217761904Y-183166666D01*
X217666666Y-182785714D01*
X217571428Y-182595238D01*
X217476190Y-182500000D01*
X217285714Y-182404761D01*
X215857142Y-182595238D02*
X215761904Y-182500000D01*
X215571428Y-182404761D01*
X215095238Y-182404761D01*
X214904761Y-182500000D01*
X214809523Y-182595238D01*
X214714285Y-182785714D01*
X214714285Y-182976190D01*
X214809523Y-183261904D01*
X215952380Y-184404761D01*
X214714285Y-184404761D01*
X213476190Y-182404761D02*
X213285714Y-182404761D01*
X213095238Y-182500000D01*
X213000000Y-182595238D01*
X212904761Y-182785714D01*
X212809523Y-183166666D01*
X212809523Y-183642857D01*
X212904761Y-184023809D01*
X213000000Y-184214285D01*
X213095238Y-184309523D01*
X213285714Y-184404761D01*
X213476190Y-184404761D01*
X213666666Y-184309523D01*
X213761904Y-184214285D01*
X213857142Y-184023809D01*
X213952380Y-183642857D01*
X213952380Y-183166666D01*
X213857142Y-182785714D01*
X213761904Y-182595238D01*
X213666666Y-182500000D01*
X213476190Y-182404761D01*
D11*
X223360000Y-202860000D02*
X225360000Y-200360000D01*
X225360000Y-187110000D02*
X209610000Y-187110000D01*
X209610000Y-187110000D02*
X209610000Y-202860000D01*
X223310000Y-202860000D02*
X223360000Y-202860000D01*
X209610000Y-202860000D02*
X223310000Y-202860000D01*
X225360000Y-200360000D02*
X225360000Y-187110000D01*
X248360000Y-202860000D02*
X250360000Y-200360000D01*
X250360000Y-187110000D02*
X234610000Y-187110000D01*
X234610000Y-187110000D02*
X234610000Y-202860000D01*
X248310000Y-202860000D02*
X248360000Y-202860000D01*
X234610000Y-202860000D02*
X248310000Y-202860000D01*
X250360000Y-200360000D02*
X250360000Y-187110000D01*
X198360000Y-202860000D02*
X200360000Y-200360000D01*
X200360000Y-187110000D02*
X184610000Y-187110000D01*
X184610000Y-187110000D02*
X184610000Y-202860000D01*
X198310000Y-202860000D02*
X198360000Y-202860000D01*
X184610000Y-202860000D02*
X198310000Y-202860000D01*
X200360000Y-200360000D02*
X200360000Y-187110000D01*
X173360000Y-202860000D02*
X175360000Y-200360000D01*
X175360000Y-187110000D02*
X159610000Y-187110000D01*
X159610000Y-187110000D02*
X159610000Y-202860000D01*
X173310000Y-202860000D02*
X173360000Y-202860000D01*
X159610000Y-202860000D02*
X173310000Y-202860000D01*
X175360000Y-200360000D02*
X175360000Y-187110000D01*
X211330000Y-183500000D02*
X211330000Y-182170000D01*
X211330000Y-182170000D02*
X210000000Y-182170000D01*
X208730000Y-182170000D02*
X198510000Y-182170000D01*
X198510000Y-184830000D02*
X198510000Y-182170000D01*
X208730000Y-184830000D02*
X198510000Y-184830000D01*
X208730000Y-184830000D02*
X208730000Y-182170000D01*
D10*
X206599285Y-194760000D02*
X207135000Y-194760000D01*
X207242142Y-194724285D01*
X207313571Y-194652857D01*
X207349285Y-194545714D01*
X207349285Y-194474285D01*
X206849285Y-195438571D02*
X207349285Y-195438571D01*
X206563571Y-195260000D02*
X207099285Y-195081428D01*
X207099285Y-195545714D01*
X227099285Y-193652857D02*
X227099285Y-193795714D01*
X227135000Y-193867142D01*
X227206428Y-193938571D01*
X227349285Y-193974285D01*
X227599285Y-193974285D01*
X227742142Y-193938571D01*
X227813571Y-193867142D01*
X227849285Y-193795714D01*
X227849285Y-193652857D01*
X227813571Y-193581428D01*
X227742142Y-193510000D01*
X227599285Y-193474285D01*
X227349285Y-193474285D01*
X227206428Y-193510000D01*
X227135000Y-193581428D01*
X227099285Y-193652857D01*
X227099285Y-194295714D02*
X227706428Y-194295714D01*
X227777857Y-194331428D01*
X227813571Y-194367142D01*
X227849285Y-194438571D01*
X227849285Y-194581428D01*
X227813571Y-194652857D01*
X227777857Y-194688571D01*
X227706428Y-194724285D01*
X227099285Y-194724285D01*
X227099285Y-194974285D02*
X227099285Y-195402857D01*
X227849285Y-195188571D02*
X227099285Y-195188571D01*
X227635000Y-196188571D02*
X227635000Y-196545714D01*
X227849285Y-196117142D02*
X227099285Y-196367142D01*
X227849285Y-196617142D01*
X231599285Y-194760000D02*
X232135000Y-194760000D01*
X232242142Y-194724285D01*
X232313571Y-194652857D01*
X232349285Y-194545714D01*
X232349285Y-194474285D01*
X231599285Y-195474285D02*
X231599285Y-195117142D01*
X231956428Y-195081428D01*
X231920714Y-195117142D01*
X231885000Y-195188571D01*
X231885000Y-195367142D01*
X231920714Y-195438571D01*
X231956428Y-195474285D01*
X232027857Y-195510000D01*
X232206428Y-195510000D01*
X232277857Y-195474285D01*
X232313571Y-195438571D01*
X232349285Y-195367142D01*
X232349285Y-195188571D01*
X232313571Y-195117142D01*
X232277857Y-195081428D01*
X252099285Y-193260000D02*
X252099285Y-193688571D01*
X252849285Y-193474285D02*
X252099285Y-193474285D01*
X252849285Y-194367142D02*
X252492142Y-194117142D01*
X252849285Y-193938571D02*
X252099285Y-193938571D01*
X252099285Y-194224285D01*
X252135000Y-194295714D01*
X252170714Y-194331428D01*
X252242142Y-194367142D01*
X252349285Y-194367142D01*
X252420714Y-194331428D01*
X252456428Y-194295714D01*
X252492142Y-194224285D01*
X252492142Y-193938571D01*
X252849285Y-194688571D02*
X252099285Y-194688571D01*
X252135000Y-195438571D02*
X252099285Y-195367142D01*
X252099285Y-195260000D01*
X252135000Y-195152857D01*
X252206428Y-195081428D01*
X252277857Y-195045714D01*
X252420714Y-195010000D01*
X252527857Y-195010000D01*
X252670714Y-195045714D01*
X252742142Y-195081428D01*
X252813571Y-195152857D01*
X252849285Y-195260000D01*
X252849285Y-195331428D01*
X252813571Y-195438571D01*
X252777857Y-195474285D01*
X252527857Y-195474285D01*
X252527857Y-195331428D01*
X252635000Y-196331428D02*
X252635000Y-196688571D01*
X252849285Y-196260000D02*
X252099285Y-196510000D01*
X252849285Y-196760000D01*
X181599285Y-194760000D02*
X182135000Y-194760000D01*
X182242142Y-194724285D01*
X182313571Y-194652857D01*
X182349285Y-194545714D01*
X182349285Y-194474285D01*
X181670714Y-195081428D02*
X181635000Y-195117142D01*
X181599285Y-195188571D01*
X181599285Y-195367142D01*
X181635000Y-195438571D01*
X181670714Y-195474285D01*
X181742142Y-195510000D01*
X181813571Y-195510000D01*
X181920714Y-195474285D01*
X182349285Y-195045714D01*
X182349285Y-195510000D01*
X202099285Y-193206428D02*
X202099285Y-193635000D01*
X202849285Y-193420714D02*
X202099285Y-193420714D01*
X202849285Y-194313571D02*
X202492142Y-194063571D01*
X202849285Y-193885000D02*
X202099285Y-193885000D01*
X202099285Y-194170714D01*
X202135000Y-194242142D01*
X202170714Y-194277857D01*
X202242142Y-194313571D01*
X202349285Y-194313571D01*
X202420714Y-194277857D01*
X202456428Y-194242142D01*
X202492142Y-194170714D01*
X202492142Y-193885000D01*
X202849285Y-194635000D02*
X202099285Y-194635000D01*
X202135000Y-195385000D02*
X202099285Y-195313571D01*
X202099285Y-195206428D01*
X202135000Y-195099285D01*
X202206428Y-195027857D01*
X202277857Y-194992142D01*
X202420714Y-194956428D01*
X202527857Y-194956428D01*
X202670714Y-194992142D01*
X202742142Y-195027857D01*
X202813571Y-195099285D01*
X202849285Y-195206428D01*
X202849285Y-195277857D01*
X202813571Y-195385000D01*
X202777857Y-195420714D01*
X202527857Y-195420714D01*
X202527857Y-195277857D01*
X202456428Y-196563571D02*
X202492142Y-196670714D01*
X202527857Y-196706428D01*
X202599285Y-196742142D01*
X202706428Y-196742142D01*
X202777857Y-196706428D01*
X202813571Y-196670714D01*
X202849285Y-196599285D01*
X202849285Y-196313571D01*
X202099285Y-196313571D01*
X202099285Y-196563571D01*
X202135000Y-196635000D01*
X202170714Y-196670714D01*
X202242142Y-196706428D01*
X202313571Y-196706428D01*
X202385000Y-196670714D01*
X202420714Y-196635000D01*
X202456428Y-196563571D01*
X202456428Y-196313571D01*
X156599285Y-194760000D02*
X157135000Y-194760000D01*
X157242142Y-194724285D01*
X157313571Y-194652857D01*
X157349285Y-194545714D01*
X157349285Y-194474285D01*
X157349285Y-195510000D02*
X157349285Y-195081428D01*
X157349285Y-195295714D02*
X156599285Y-195295714D01*
X156706428Y-195224285D01*
X156777857Y-195152857D01*
X156813571Y-195081428D01*
X177099285Y-193599285D02*
X177099285Y-193742142D01*
X177135000Y-193813571D01*
X177206428Y-193885000D01*
X177349285Y-193920714D01*
X177599285Y-193920714D01*
X177742142Y-193885000D01*
X177813571Y-193813571D01*
X177849285Y-193742142D01*
X177849285Y-193599285D01*
X177813571Y-193527857D01*
X177742142Y-193456428D01*
X177599285Y-193420714D01*
X177349285Y-193420714D01*
X177206428Y-193456428D01*
X177135000Y-193527857D01*
X177099285Y-193599285D01*
X177099285Y-194242142D02*
X177706428Y-194242142D01*
X177777857Y-194277857D01*
X177813571Y-194313571D01*
X177849285Y-194385000D01*
X177849285Y-194527857D01*
X177813571Y-194599285D01*
X177777857Y-194635000D01*
X177706428Y-194670714D01*
X177099285Y-194670714D01*
X177099285Y-194920714D02*
X177099285Y-195349285D01*
X177849285Y-195135000D02*
X177099285Y-195135000D01*
X177456428Y-196420714D02*
X177492142Y-196527857D01*
X177527857Y-196563571D01*
X177599285Y-196599285D01*
X177706428Y-196599285D01*
X177777857Y-196563571D01*
X177813571Y-196527857D01*
X177849285Y-196456428D01*
X177849285Y-196170714D01*
X177099285Y-196170714D01*
X177099285Y-196420714D01*
X177135000Y-196492142D01*
X177170714Y-196527857D01*
X177242142Y-196563571D01*
X177313571Y-196563571D01*
X177385000Y-196527857D01*
X177420714Y-196492142D01*
X177456428Y-196420714D01*
X177456428Y-196170714D01*
X212222380Y-183166666D02*
X212936666Y-183166666D01*
X213079523Y-183119047D01*
X213174761Y-183023809D01*
X213222380Y-182880952D01*
X213222380Y-182785714D01*
X212222380Y-183547619D02*
X212222380Y-184166666D01*
X212603333Y-183833333D01*
X212603333Y-183976190D01*
X212650952Y-184071428D01*
X212698571Y-184119047D01*
X212793809Y-184166666D01*
X213031904Y-184166666D01*
X213127142Y-184119047D01*
X213174761Y-184071428D01*
X213222380Y-183976190D01*
X213222380Y-183690476D01*
X213174761Y-183595238D01*
X213127142Y-183547619D01*
M02*
