G04 #@! TF.GenerationSoftware,KiCad,Pcbnew,5.1.6-c6e7f7d~87~ubuntu20.04.1*
G04 #@! TF.CreationDate,2020-10-18T21:18:21-04:00*
G04 #@! TF.ProjectId,jackboard4,6a61636b-626f-4617-9264-342e6b696361,rev?*
G04 #@! TF.SameCoordinates,Original*
G04 #@! TF.FileFunction,Copper,L2,Bot*
G04 #@! TF.FilePolarity,Positive*
%FSLAX46Y46*%
G04 Gerber Fmt 4.6, Leading zero omitted, Abs format (unit mm)*
G04 Created by KiCad (PCBNEW 5.1.6-c6e7f7d~87~ubuntu20.04.1) date 2020-10-18 21:18:21*
%MOMM*%
%LPD*%
G01*
G04 APERTURE LIST*
G04 #@! TA.AperFunction,ComponentPad*
%ADD10C,4.500001*%
G04 #@! TD*
G04 #@! TA.AperFunction,ComponentPad*
%ADD11C,4.500000*%
G04 #@! TD*
G04 #@! TA.AperFunction,ComponentPad*
%ADD12R,4.500001X4.500001*%
G04 #@! TD*
G04 #@! TA.AperFunction,ComponentPad*
%ADD13O,1.700000X1.700000*%
G04 #@! TD*
G04 #@! TA.AperFunction,ComponentPad*
%ADD14R,1.700000X1.700000*%
G04 #@! TD*
G04 #@! TA.AperFunction,Conductor*
%ADD15C,0.254000*%
G04 #@! TD*
G04 APERTURE END LIST*
D10*
X215010000Y-201410000D03*
D11*
X223910000Y-192510000D03*
D10*
X211110000Y-195510000D03*
D12*
X222250000Y-199750000D03*
D11*
X218010000Y-188610000D03*
D10*
X240010000Y-201410000D03*
D11*
X248910000Y-192510000D03*
D10*
X236110000Y-195510000D03*
D12*
X247250000Y-199750000D03*
D11*
X243010000Y-188610000D03*
D10*
X190010000Y-201410000D03*
D11*
X198910000Y-192510000D03*
D10*
X186110000Y-195510000D03*
D12*
X197250000Y-199750000D03*
D11*
X193010000Y-188610000D03*
D10*
X165010000Y-201410000D03*
D11*
X173910000Y-192510000D03*
D10*
X161110000Y-195510000D03*
D12*
X172250000Y-199750000D03*
D11*
X168010000Y-188610000D03*
D13*
X199840000Y-183500000D03*
X202380000Y-183500000D03*
X204920000Y-183500000D03*
X207460000Y-183500000D03*
D14*
X210000000Y-183500000D03*
D15*
G36*
X252340001Y-205340000D02*
G01*
X157660000Y-205340000D01*
X157660000Y-201125852D01*
X162125000Y-201125852D01*
X162125000Y-201694148D01*
X162235869Y-202251523D01*
X162453346Y-202776560D01*
X162769074Y-203249080D01*
X163170920Y-203650926D01*
X163643440Y-203966654D01*
X164168477Y-204184131D01*
X164725852Y-204295000D01*
X165294148Y-204295000D01*
X165851523Y-204184131D01*
X166376560Y-203966654D01*
X166849080Y-203650926D01*
X167250926Y-203249080D01*
X167566654Y-202776560D01*
X167784131Y-202251523D01*
X167834162Y-202000000D01*
X169361928Y-202000000D01*
X169374188Y-202124482D01*
X169410498Y-202244180D01*
X169469463Y-202354494D01*
X169548815Y-202451185D01*
X169645506Y-202530537D01*
X169755820Y-202589502D01*
X169875518Y-202625812D01*
X170000000Y-202638072D01*
X171964250Y-202635000D01*
X172123000Y-202476250D01*
X172123000Y-199877000D01*
X172377000Y-199877000D01*
X172377000Y-202476250D01*
X172535750Y-202635000D01*
X174500000Y-202638072D01*
X174624482Y-202625812D01*
X174744180Y-202589502D01*
X174854494Y-202530537D01*
X174951185Y-202451185D01*
X175030537Y-202354494D01*
X175089502Y-202244180D01*
X175125812Y-202124482D01*
X175138072Y-202000000D01*
X175136705Y-201125852D01*
X187125000Y-201125852D01*
X187125000Y-201694148D01*
X187235869Y-202251523D01*
X187453346Y-202776560D01*
X187769074Y-203249080D01*
X188170920Y-203650926D01*
X188643440Y-203966654D01*
X189168477Y-204184131D01*
X189725852Y-204295000D01*
X190294148Y-204295000D01*
X190851523Y-204184131D01*
X191376560Y-203966654D01*
X191849080Y-203650926D01*
X192250926Y-203249080D01*
X192566654Y-202776560D01*
X192784131Y-202251523D01*
X192834162Y-202000000D01*
X194361928Y-202000000D01*
X194374188Y-202124482D01*
X194410498Y-202244180D01*
X194469463Y-202354494D01*
X194548815Y-202451185D01*
X194645506Y-202530537D01*
X194755820Y-202589502D01*
X194875518Y-202625812D01*
X195000000Y-202638072D01*
X196964250Y-202635000D01*
X197123000Y-202476250D01*
X197123000Y-199877000D01*
X197377000Y-199877000D01*
X197377000Y-202476250D01*
X197535750Y-202635000D01*
X199500000Y-202638072D01*
X199624482Y-202625812D01*
X199744180Y-202589502D01*
X199854494Y-202530537D01*
X199951185Y-202451185D01*
X200030537Y-202354494D01*
X200089502Y-202244180D01*
X200125812Y-202124482D01*
X200138072Y-202000000D01*
X200136705Y-201125852D01*
X212125000Y-201125852D01*
X212125000Y-201694148D01*
X212235869Y-202251523D01*
X212453346Y-202776560D01*
X212769074Y-203249080D01*
X213170920Y-203650926D01*
X213643440Y-203966654D01*
X214168477Y-204184131D01*
X214725852Y-204295000D01*
X215294148Y-204295000D01*
X215851523Y-204184131D01*
X216376560Y-203966654D01*
X216849080Y-203650926D01*
X217250926Y-203249080D01*
X217566654Y-202776560D01*
X217784131Y-202251523D01*
X217834162Y-202000000D01*
X219361928Y-202000000D01*
X219374188Y-202124482D01*
X219410498Y-202244180D01*
X219469463Y-202354494D01*
X219548815Y-202451185D01*
X219645506Y-202530537D01*
X219755820Y-202589502D01*
X219875518Y-202625812D01*
X220000000Y-202638072D01*
X221964250Y-202635000D01*
X222123000Y-202476250D01*
X222123000Y-199877000D01*
X222377000Y-199877000D01*
X222377000Y-202476250D01*
X222535750Y-202635000D01*
X224500000Y-202638072D01*
X224624482Y-202625812D01*
X224744180Y-202589502D01*
X224854494Y-202530537D01*
X224951185Y-202451185D01*
X225030537Y-202354494D01*
X225089502Y-202244180D01*
X225125812Y-202124482D01*
X225138072Y-202000000D01*
X225136705Y-201125852D01*
X237125000Y-201125852D01*
X237125000Y-201694148D01*
X237235869Y-202251523D01*
X237453346Y-202776560D01*
X237769074Y-203249080D01*
X238170920Y-203650926D01*
X238643440Y-203966654D01*
X239168477Y-204184131D01*
X239725852Y-204295000D01*
X240294148Y-204295000D01*
X240851523Y-204184131D01*
X241376560Y-203966654D01*
X241849080Y-203650926D01*
X242250926Y-203249080D01*
X242566654Y-202776560D01*
X242784131Y-202251523D01*
X242834162Y-202000000D01*
X244361928Y-202000000D01*
X244374188Y-202124482D01*
X244410498Y-202244180D01*
X244469463Y-202354494D01*
X244548815Y-202451185D01*
X244645506Y-202530537D01*
X244755820Y-202589502D01*
X244875518Y-202625812D01*
X245000000Y-202638072D01*
X246964250Y-202635000D01*
X247123000Y-202476250D01*
X247123000Y-199877000D01*
X247377000Y-199877000D01*
X247377000Y-202476250D01*
X247535750Y-202635000D01*
X249500000Y-202638072D01*
X249624482Y-202625812D01*
X249744180Y-202589502D01*
X249854494Y-202530537D01*
X249951185Y-202451185D01*
X250030537Y-202354494D01*
X250089502Y-202244180D01*
X250125812Y-202124482D01*
X250138072Y-202000000D01*
X250135000Y-200035750D01*
X249976250Y-199877000D01*
X247377000Y-199877000D01*
X247123000Y-199877000D01*
X244523750Y-199877000D01*
X244365000Y-200035750D01*
X244361928Y-202000000D01*
X242834162Y-202000000D01*
X242895000Y-201694148D01*
X242895000Y-201125852D01*
X242784131Y-200568477D01*
X242566654Y-200043440D01*
X242250926Y-199570920D01*
X241849080Y-199169074D01*
X241376560Y-198853346D01*
X240851523Y-198635869D01*
X240294148Y-198525000D01*
X239725852Y-198525000D01*
X239168477Y-198635869D01*
X238643440Y-198853346D01*
X238170920Y-199169074D01*
X237769074Y-199570920D01*
X237453346Y-200043440D01*
X237235869Y-200568477D01*
X237125000Y-201125852D01*
X225136705Y-201125852D01*
X225135000Y-200035750D01*
X224976250Y-199877000D01*
X222377000Y-199877000D01*
X222123000Y-199877000D01*
X219523750Y-199877000D01*
X219365000Y-200035750D01*
X219361928Y-202000000D01*
X217834162Y-202000000D01*
X217895000Y-201694148D01*
X217895000Y-201125852D01*
X217784131Y-200568477D01*
X217566654Y-200043440D01*
X217250926Y-199570920D01*
X216849080Y-199169074D01*
X216376560Y-198853346D01*
X215851523Y-198635869D01*
X215294148Y-198525000D01*
X214725852Y-198525000D01*
X214168477Y-198635869D01*
X213643440Y-198853346D01*
X213170920Y-199169074D01*
X212769074Y-199570920D01*
X212453346Y-200043440D01*
X212235869Y-200568477D01*
X212125000Y-201125852D01*
X200136705Y-201125852D01*
X200135000Y-200035750D01*
X199976250Y-199877000D01*
X197377000Y-199877000D01*
X197123000Y-199877000D01*
X194523750Y-199877000D01*
X194365000Y-200035750D01*
X194361928Y-202000000D01*
X192834162Y-202000000D01*
X192895000Y-201694148D01*
X192895000Y-201125852D01*
X192784131Y-200568477D01*
X192566654Y-200043440D01*
X192250926Y-199570920D01*
X191849080Y-199169074D01*
X191376560Y-198853346D01*
X190851523Y-198635869D01*
X190294148Y-198525000D01*
X189725852Y-198525000D01*
X189168477Y-198635869D01*
X188643440Y-198853346D01*
X188170920Y-199169074D01*
X187769074Y-199570920D01*
X187453346Y-200043440D01*
X187235869Y-200568477D01*
X187125000Y-201125852D01*
X175136705Y-201125852D01*
X175135000Y-200035750D01*
X174976250Y-199877000D01*
X172377000Y-199877000D01*
X172123000Y-199877000D01*
X169523750Y-199877000D01*
X169365000Y-200035750D01*
X169361928Y-202000000D01*
X167834162Y-202000000D01*
X167895000Y-201694148D01*
X167895000Y-201125852D01*
X167784131Y-200568477D01*
X167566654Y-200043440D01*
X167250926Y-199570920D01*
X166849080Y-199169074D01*
X166376560Y-198853346D01*
X165851523Y-198635869D01*
X165294148Y-198525000D01*
X164725852Y-198525000D01*
X164168477Y-198635869D01*
X163643440Y-198853346D01*
X163170920Y-199169074D01*
X162769074Y-199570920D01*
X162453346Y-200043440D01*
X162235869Y-200568477D01*
X162125000Y-201125852D01*
X157660000Y-201125852D01*
X157660000Y-195225852D01*
X158225000Y-195225852D01*
X158225000Y-195794148D01*
X158335869Y-196351523D01*
X158553346Y-196876560D01*
X158869074Y-197349080D01*
X159270920Y-197750926D01*
X159743440Y-198066654D01*
X160268477Y-198284131D01*
X160825852Y-198395000D01*
X161394148Y-198395000D01*
X161951523Y-198284131D01*
X162476560Y-198066654D01*
X162949080Y-197750926D01*
X163200006Y-197500000D01*
X169361928Y-197500000D01*
X169365000Y-199464250D01*
X169523750Y-199623000D01*
X172123000Y-199623000D01*
X172123000Y-197023750D01*
X172377000Y-197023750D01*
X172377000Y-199623000D01*
X174976250Y-199623000D01*
X175135000Y-199464250D01*
X175138072Y-197500000D01*
X175125812Y-197375518D01*
X175089502Y-197255820D01*
X175030537Y-197145506D01*
X174951185Y-197048815D01*
X174854494Y-196969463D01*
X174744180Y-196910498D01*
X174624482Y-196874188D01*
X174500000Y-196861928D01*
X172535750Y-196865000D01*
X172377000Y-197023750D01*
X172123000Y-197023750D01*
X171964250Y-196865000D01*
X170000000Y-196861928D01*
X169875518Y-196874188D01*
X169755820Y-196910498D01*
X169645506Y-196969463D01*
X169548815Y-197048815D01*
X169469463Y-197145506D01*
X169410498Y-197255820D01*
X169374188Y-197375518D01*
X169361928Y-197500000D01*
X163200006Y-197500000D01*
X163350926Y-197349080D01*
X163666654Y-196876560D01*
X163884131Y-196351523D01*
X163995000Y-195794148D01*
X163995000Y-195225852D01*
X163884131Y-194668477D01*
X163666654Y-194143440D01*
X163350926Y-193670920D01*
X162949080Y-193269074D01*
X162476560Y-192953346D01*
X161951523Y-192735869D01*
X161394148Y-192625000D01*
X160825852Y-192625000D01*
X160268477Y-192735869D01*
X159743440Y-192953346D01*
X159270920Y-193269074D01*
X158869074Y-193670920D01*
X158553346Y-194143440D01*
X158335869Y-194668477D01*
X158225000Y-195225852D01*
X157660000Y-195225852D01*
X157660000Y-192225852D01*
X171025000Y-192225852D01*
X171025000Y-192794148D01*
X171135869Y-193351523D01*
X171353346Y-193876560D01*
X171669074Y-194349080D01*
X172070920Y-194750926D01*
X172543440Y-195066654D01*
X173068477Y-195284131D01*
X173625852Y-195395000D01*
X174194148Y-195395000D01*
X174751523Y-195284131D01*
X174892221Y-195225852D01*
X183225000Y-195225852D01*
X183225000Y-195794148D01*
X183335869Y-196351523D01*
X183553346Y-196876560D01*
X183869074Y-197349080D01*
X184270920Y-197750926D01*
X184743440Y-198066654D01*
X185268477Y-198284131D01*
X185825852Y-198395000D01*
X186394148Y-198395000D01*
X186951523Y-198284131D01*
X187476560Y-198066654D01*
X187949080Y-197750926D01*
X188200006Y-197500000D01*
X194361928Y-197500000D01*
X194365000Y-199464250D01*
X194523750Y-199623000D01*
X197123000Y-199623000D01*
X197123000Y-197023750D01*
X197377000Y-197023750D01*
X197377000Y-199623000D01*
X199976250Y-199623000D01*
X200135000Y-199464250D01*
X200138072Y-197500000D01*
X200125812Y-197375518D01*
X200089502Y-197255820D01*
X200030537Y-197145506D01*
X199951185Y-197048815D01*
X199854494Y-196969463D01*
X199744180Y-196910498D01*
X199624482Y-196874188D01*
X199500000Y-196861928D01*
X197535750Y-196865000D01*
X197377000Y-197023750D01*
X197123000Y-197023750D01*
X196964250Y-196865000D01*
X195000000Y-196861928D01*
X194875518Y-196874188D01*
X194755820Y-196910498D01*
X194645506Y-196969463D01*
X194548815Y-197048815D01*
X194469463Y-197145506D01*
X194410498Y-197255820D01*
X194374188Y-197375518D01*
X194361928Y-197500000D01*
X188200006Y-197500000D01*
X188350926Y-197349080D01*
X188666654Y-196876560D01*
X188884131Y-196351523D01*
X188995000Y-195794148D01*
X188995000Y-195225852D01*
X188884131Y-194668477D01*
X188666654Y-194143440D01*
X188350926Y-193670920D01*
X187949080Y-193269074D01*
X187476560Y-192953346D01*
X186951523Y-192735869D01*
X186394148Y-192625000D01*
X185825852Y-192625000D01*
X185268477Y-192735869D01*
X184743440Y-192953346D01*
X184270920Y-193269074D01*
X183869074Y-193670920D01*
X183553346Y-194143440D01*
X183335869Y-194668477D01*
X183225000Y-195225852D01*
X174892221Y-195225852D01*
X175276560Y-195066654D01*
X175749080Y-194750926D01*
X176150926Y-194349080D01*
X176466654Y-193876560D01*
X176684131Y-193351523D01*
X176795000Y-192794148D01*
X176795000Y-192225852D01*
X196025000Y-192225852D01*
X196025000Y-192794148D01*
X196135869Y-193351523D01*
X196353346Y-193876560D01*
X196669074Y-194349080D01*
X197070920Y-194750926D01*
X197543440Y-195066654D01*
X198068477Y-195284131D01*
X198625852Y-195395000D01*
X199194148Y-195395000D01*
X199751523Y-195284131D01*
X199892221Y-195225852D01*
X208225000Y-195225852D01*
X208225000Y-195794148D01*
X208335869Y-196351523D01*
X208553346Y-196876560D01*
X208869074Y-197349080D01*
X209270920Y-197750926D01*
X209743440Y-198066654D01*
X210268477Y-198284131D01*
X210825852Y-198395000D01*
X211394148Y-198395000D01*
X211951523Y-198284131D01*
X212476560Y-198066654D01*
X212949080Y-197750926D01*
X213200006Y-197500000D01*
X219361928Y-197500000D01*
X219365000Y-199464250D01*
X219523750Y-199623000D01*
X222123000Y-199623000D01*
X222123000Y-197023750D01*
X222377000Y-197023750D01*
X222377000Y-199623000D01*
X224976250Y-199623000D01*
X225135000Y-199464250D01*
X225138072Y-197500000D01*
X225125812Y-197375518D01*
X225089502Y-197255820D01*
X225030537Y-197145506D01*
X224951185Y-197048815D01*
X224854494Y-196969463D01*
X224744180Y-196910498D01*
X224624482Y-196874188D01*
X224500000Y-196861928D01*
X222535750Y-196865000D01*
X222377000Y-197023750D01*
X222123000Y-197023750D01*
X221964250Y-196865000D01*
X220000000Y-196861928D01*
X219875518Y-196874188D01*
X219755820Y-196910498D01*
X219645506Y-196969463D01*
X219548815Y-197048815D01*
X219469463Y-197145506D01*
X219410498Y-197255820D01*
X219374188Y-197375518D01*
X219361928Y-197500000D01*
X213200006Y-197500000D01*
X213350926Y-197349080D01*
X213666654Y-196876560D01*
X213884131Y-196351523D01*
X213995000Y-195794148D01*
X213995000Y-195225852D01*
X213884131Y-194668477D01*
X213666654Y-194143440D01*
X213350926Y-193670920D01*
X212949080Y-193269074D01*
X212476560Y-192953346D01*
X211951523Y-192735869D01*
X211394148Y-192625000D01*
X210825852Y-192625000D01*
X210268477Y-192735869D01*
X209743440Y-192953346D01*
X209270920Y-193269074D01*
X208869074Y-193670920D01*
X208553346Y-194143440D01*
X208335869Y-194668477D01*
X208225000Y-195225852D01*
X199892221Y-195225852D01*
X200276560Y-195066654D01*
X200749080Y-194750926D01*
X201150926Y-194349080D01*
X201466654Y-193876560D01*
X201684131Y-193351523D01*
X201795000Y-192794148D01*
X201795000Y-192225852D01*
X221025000Y-192225852D01*
X221025000Y-192794148D01*
X221135869Y-193351523D01*
X221353346Y-193876560D01*
X221669074Y-194349080D01*
X222070920Y-194750926D01*
X222543440Y-195066654D01*
X223068477Y-195284131D01*
X223625852Y-195395000D01*
X224194148Y-195395000D01*
X224751523Y-195284131D01*
X224892221Y-195225852D01*
X233225000Y-195225852D01*
X233225000Y-195794148D01*
X233335869Y-196351523D01*
X233553346Y-196876560D01*
X233869074Y-197349080D01*
X234270920Y-197750926D01*
X234743440Y-198066654D01*
X235268477Y-198284131D01*
X235825852Y-198395000D01*
X236394148Y-198395000D01*
X236951523Y-198284131D01*
X237476560Y-198066654D01*
X237949080Y-197750926D01*
X238200006Y-197500000D01*
X244361928Y-197500000D01*
X244365000Y-199464250D01*
X244523750Y-199623000D01*
X247123000Y-199623000D01*
X247123000Y-197023750D01*
X247377000Y-197023750D01*
X247377000Y-199623000D01*
X249976250Y-199623000D01*
X250135000Y-199464250D01*
X250138072Y-197500000D01*
X250125812Y-197375518D01*
X250089502Y-197255820D01*
X250030537Y-197145506D01*
X249951185Y-197048815D01*
X249854494Y-196969463D01*
X249744180Y-196910498D01*
X249624482Y-196874188D01*
X249500000Y-196861928D01*
X247535750Y-196865000D01*
X247377000Y-197023750D01*
X247123000Y-197023750D01*
X246964250Y-196865000D01*
X245000000Y-196861928D01*
X244875518Y-196874188D01*
X244755820Y-196910498D01*
X244645506Y-196969463D01*
X244548815Y-197048815D01*
X244469463Y-197145506D01*
X244410498Y-197255820D01*
X244374188Y-197375518D01*
X244361928Y-197500000D01*
X238200006Y-197500000D01*
X238350926Y-197349080D01*
X238666654Y-196876560D01*
X238884131Y-196351523D01*
X238995000Y-195794148D01*
X238995000Y-195225852D01*
X238884131Y-194668477D01*
X238666654Y-194143440D01*
X238350926Y-193670920D01*
X237949080Y-193269074D01*
X237476560Y-192953346D01*
X236951523Y-192735869D01*
X236394148Y-192625000D01*
X235825852Y-192625000D01*
X235268477Y-192735869D01*
X234743440Y-192953346D01*
X234270920Y-193269074D01*
X233869074Y-193670920D01*
X233553346Y-194143440D01*
X233335869Y-194668477D01*
X233225000Y-195225852D01*
X224892221Y-195225852D01*
X225276560Y-195066654D01*
X225749080Y-194750926D01*
X226150926Y-194349080D01*
X226466654Y-193876560D01*
X226684131Y-193351523D01*
X226795000Y-192794148D01*
X226795000Y-192225852D01*
X246025000Y-192225852D01*
X246025000Y-192794148D01*
X246135869Y-193351523D01*
X246353346Y-193876560D01*
X246669074Y-194349080D01*
X247070920Y-194750926D01*
X247543440Y-195066654D01*
X248068477Y-195284131D01*
X248625852Y-195395000D01*
X249194148Y-195395000D01*
X249751523Y-195284131D01*
X250276560Y-195066654D01*
X250749080Y-194750926D01*
X251150926Y-194349080D01*
X251466654Y-193876560D01*
X251684131Y-193351523D01*
X251795000Y-192794148D01*
X251795000Y-192225852D01*
X251684131Y-191668477D01*
X251466654Y-191143440D01*
X251150926Y-190670920D01*
X250749080Y-190269074D01*
X250276560Y-189953346D01*
X249751523Y-189735869D01*
X249194148Y-189625000D01*
X248625852Y-189625000D01*
X248068477Y-189735869D01*
X247543440Y-189953346D01*
X247070920Y-190269074D01*
X246669074Y-190670920D01*
X246353346Y-191143440D01*
X246135869Y-191668477D01*
X246025000Y-192225852D01*
X226795000Y-192225852D01*
X226684131Y-191668477D01*
X226466654Y-191143440D01*
X226150926Y-190670920D01*
X225749080Y-190269074D01*
X225276560Y-189953346D01*
X224751523Y-189735869D01*
X224194148Y-189625000D01*
X223625852Y-189625000D01*
X223068477Y-189735869D01*
X222543440Y-189953346D01*
X222070920Y-190269074D01*
X221669074Y-190670920D01*
X221353346Y-191143440D01*
X221135869Y-191668477D01*
X221025000Y-192225852D01*
X201795000Y-192225852D01*
X201684131Y-191668477D01*
X201466654Y-191143440D01*
X201150926Y-190670920D01*
X200749080Y-190269074D01*
X200276560Y-189953346D01*
X199751523Y-189735869D01*
X199194148Y-189625000D01*
X198625852Y-189625000D01*
X198068477Y-189735869D01*
X197543440Y-189953346D01*
X197070920Y-190269074D01*
X196669074Y-190670920D01*
X196353346Y-191143440D01*
X196135869Y-191668477D01*
X196025000Y-192225852D01*
X176795000Y-192225852D01*
X176684131Y-191668477D01*
X176466654Y-191143440D01*
X176150926Y-190670920D01*
X175749080Y-190269074D01*
X175276560Y-189953346D01*
X174751523Y-189735869D01*
X174194148Y-189625000D01*
X173625852Y-189625000D01*
X173068477Y-189735869D01*
X172543440Y-189953346D01*
X172070920Y-190269074D01*
X171669074Y-190670920D01*
X171353346Y-191143440D01*
X171135869Y-191668477D01*
X171025000Y-192225852D01*
X157660000Y-192225852D01*
X157660000Y-188325852D01*
X165125000Y-188325852D01*
X165125000Y-188894148D01*
X165235869Y-189451523D01*
X165453346Y-189976560D01*
X165769074Y-190449080D01*
X166170920Y-190850926D01*
X166643440Y-191166654D01*
X167168477Y-191384131D01*
X167725852Y-191495000D01*
X168294148Y-191495000D01*
X168851523Y-191384131D01*
X169376560Y-191166654D01*
X169849080Y-190850926D01*
X170250926Y-190449080D01*
X170566654Y-189976560D01*
X170784131Y-189451523D01*
X170895000Y-188894148D01*
X170895000Y-188325852D01*
X190125000Y-188325852D01*
X190125000Y-188894148D01*
X190235869Y-189451523D01*
X190453346Y-189976560D01*
X190769074Y-190449080D01*
X191170920Y-190850926D01*
X191643440Y-191166654D01*
X192168477Y-191384131D01*
X192725852Y-191495000D01*
X193294148Y-191495000D01*
X193851523Y-191384131D01*
X194376560Y-191166654D01*
X194849080Y-190850926D01*
X195250926Y-190449080D01*
X195566654Y-189976560D01*
X195784131Y-189451523D01*
X195895000Y-188894148D01*
X195895000Y-188325852D01*
X215125000Y-188325852D01*
X215125000Y-188894148D01*
X215235869Y-189451523D01*
X215453346Y-189976560D01*
X215769074Y-190449080D01*
X216170920Y-190850926D01*
X216643440Y-191166654D01*
X217168477Y-191384131D01*
X217725852Y-191495000D01*
X218294148Y-191495000D01*
X218851523Y-191384131D01*
X219376560Y-191166654D01*
X219849080Y-190850926D01*
X220250926Y-190449080D01*
X220566654Y-189976560D01*
X220784131Y-189451523D01*
X220895000Y-188894148D01*
X220895000Y-188325852D01*
X240125000Y-188325852D01*
X240125000Y-188894148D01*
X240235869Y-189451523D01*
X240453346Y-189976560D01*
X240769074Y-190449080D01*
X241170920Y-190850926D01*
X241643440Y-191166654D01*
X242168477Y-191384131D01*
X242725852Y-191495000D01*
X243294148Y-191495000D01*
X243851523Y-191384131D01*
X244376560Y-191166654D01*
X244849080Y-190850926D01*
X245250926Y-190449080D01*
X245566654Y-189976560D01*
X245784131Y-189451523D01*
X245895000Y-188894148D01*
X245895000Y-188325852D01*
X245784131Y-187768477D01*
X245566654Y-187243440D01*
X245250926Y-186770920D01*
X244849080Y-186369074D01*
X244376560Y-186053346D01*
X243851523Y-185835869D01*
X243294148Y-185725000D01*
X242725852Y-185725000D01*
X242168477Y-185835869D01*
X241643440Y-186053346D01*
X241170920Y-186369074D01*
X240769074Y-186770920D01*
X240453346Y-187243440D01*
X240235869Y-187768477D01*
X240125000Y-188325852D01*
X220895000Y-188325852D01*
X220784131Y-187768477D01*
X220566654Y-187243440D01*
X220250926Y-186770920D01*
X219849080Y-186369074D01*
X219376560Y-186053346D01*
X218851523Y-185835869D01*
X218294148Y-185725000D01*
X217725852Y-185725000D01*
X217168477Y-185835869D01*
X216643440Y-186053346D01*
X216170920Y-186369074D01*
X215769074Y-186770920D01*
X215453346Y-187243440D01*
X215235869Y-187768477D01*
X215125000Y-188325852D01*
X195895000Y-188325852D01*
X195784131Y-187768477D01*
X195566654Y-187243440D01*
X195250926Y-186770920D01*
X194849080Y-186369074D01*
X194376560Y-186053346D01*
X193851523Y-185835869D01*
X193294148Y-185725000D01*
X192725852Y-185725000D01*
X192168477Y-185835869D01*
X191643440Y-186053346D01*
X191170920Y-186369074D01*
X190769074Y-186770920D01*
X190453346Y-187243440D01*
X190235869Y-187768477D01*
X190125000Y-188325852D01*
X170895000Y-188325852D01*
X170784131Y-187768477D01*
X170566654Y-187243440D01*
X170250926Y-186770920D01*
X169849080Y-186369074D01*
X169376560Y-186053346D01*
X168851523Y-185835869D01*
X168294148Y-185725000D01*
X167725852Y-185725000D01*
X167168477Y-185835869D01*
X166643440Y-186053346D01*
X166170920Y-186369074D01*
X165769074Y-186770920D01*
X165453346Y-187243440D01*
X165235869Y-187768477D01*
X165125000Y-188325852D01*
X157660000Y-188325852D01*
X157660000Y-183353740D01*
X198355000Y-183353740D01*
X198355000Y-183646260D01*
X198412068Y-183933158D01*
X198524010Y-184203411D01*
X198686525Y-184446632D01*
X198893368Y-184653475D01*
X199136589Y-184815990D01*
X199406842Y-184927932D01*
X199693740Y-184985000D01*
X199986260Y-184985000D01*
X200273158Y-184927932D01*
X200543411Y-184815990D01*
X200786632Y-184653475D01*
X200993475Y-184446632D01*
X201110000Y-184272240D01*
X201226525Y-184446632D01*
X201433368Y-184653475D01*
X201676589Y-184815990D01*
X201946842Y-184927932D01*
X202233740Y-184985000D01*
X202526260Y-184985000D01*
X202813158Y-184927932D01*
X203083411Y-184815990D01*
X203326632Y-184653475D01*
X203533475Y-184446632D01*
X203650000Y-184272240D01*
X203766525Y-184446632D01*
X203973368Y-184653475D01*
X204216589Y-184815990D01*
X204486842Y-184927932D01*
X204773740Y-184985000D01*
X205066260Y-184985000D01*
X205353158Y-184927932D01*
X205623411Y-184815990D01*
X205866632Y-184653475D01*
X206073475Y-184446632D01*
X206190000Y-184272240D01*
X206306525Y-184446632D01*
X206513368Y-184653475D01*
X206756589Y-184815990D01*
X207026842Y-184927932D01*
X207313740Y-184985000D01*
X207606260Y-184985000D01*
X207893158Y-184927932D01*
X208163411Y-184815990D01*
X208406632Y-184653475D01*
X208538487Y-184521620D01*
X208560498Y-184594180D01*
X208619463Y-184704494D01*
X208698815Y-184801185D01*
X208795506Y-184880537D01*
X208905820Y-184939502D01*
X209025518Y-184975812D01*
X209150000Y-184988072D01*
X209714250Y-184985000D01*
X209873000Y-184826250D01*
X209873000Y-183627000D01*
X210127000Y-183627000D01*
X210127000Y-184826250D01*
X210285750Y-184985000D01*
X210850000Y-184988072D01*
X210974482Y-184975812D01*
X211094180Y-184939502D01*
X211204494Y-184880537D01*
X211301185Y-184801185D01*
X211380537Y-184704494D01*
X211439502Y-184594180D01*
X211475812Y-184474482D01*
X211488072Y-184350000D01*
X211485000Y-183785750D01*
X211326250Y-183627000D01*
X210127000Y-183627000D01*
X209873000Y-183627000D01*
X209853000Y-183627000D01*
X209853000Y-183373000D01*
X209873000Y-183373000D01*
X209873000Y-182173750D01*
X210127000Y-182173750D01*
X210127000Y-183373000D01*
X211326250Y-183373000D01*
X211485000Y-183214250D01*
X211488072Y-182650000D01*
X211475812Y-182525518D01*
X211439502Y-182405820D01*
X211380537Y-182295506D01*
X211301185Y-182198815D01*
X211204494Y-182119463D01*
X211094180Y-182060498D01*
X210974482Y-182024188D01*
X210850000Y-182011928D01*
X210285750Y-182015000D01*
X210127000Y-182173750D01*
X209873000Y-182173750D01*
X209714250Y-182015000D01*
X209150000Y-182011928D01*
X209025518Y-182024188D01*
X208905820Y-182060498D01*
X208795506Y-182119463D01*
X208698815Y-182198815D01*
X208619463Y-182295506D01*
X208560498Y-182405820D01*
X208538487Y-182478380D01*
X208406632Y-182346525D01*
X208163411Y-182184010D01*
X207893158Y-182072068D01*
X207606260Y-182015000D01*
X207313740Y-182015000D01*
X207026842Y-182072068D01*
X206756589Y-182184010D01*
X206513368Y-182346525D01*
X206306525Y-182553368D01*
X206190000Y-182727760D01*
X206073475Y-182553368D01*
X205866632Y-182346525D01*
X205623411Y-182184010D01*
X205353158Y-182072068D01*
X205066260Y-182015000D01*
X204773740Y-182015000D01*
X204486842Y-182072068D01*
X204216589Y-182184010D01*
X203973368Y-182346525D01*
X203766525Y-182553368D01*
X203650000Y-182727760D01*
X203533475Y-182553368D01*
X203326632Y-182346525D01*
X203083411Y-182184010D01*
X202813158Y-182072068D01*
X202526260Y-182015000D01*
X202233740Y-182015000D01*
X201946842Y-182072068D01*
X201676589Y-182184010D01*
X201433368Y-182346525D01*
X201226525Y-182553368D01*
X201110000Y-182727760D01*
X200993475Y-182553368D01*
X200786632Y-182346525D01*
X200543411Y-182184010D01*
X200273158Y-182072068D01*
X199986260Y-182015000D01*
X199693740Y-182015000D01*
X199406842Y-182072068D01*
X199136589Y-182184010D01*
X198893368Y-182346525D01*
X198686525Y-182553368D01*
X198524010Y-182796589D01*
X198412068Y-183066842D01*
X198355000Y-183353740D01*
X157660000Y-183353740D01*
X157660000Y-181660000D01*
X252340000Y-181660000D01*
X252340001Y-205340000D01*
G37*
X252340001Y-205340000D02*
X157660000Y-205340000D01*
X157660000Y-201125852D01*
X162125000Y-201125852D01*
X162125000Y-201694148D01*
X162235869Y-202251523D01*
X162453346Y-202776560D01*
X162769074Y-203249080D01*
X163170920Y-203650926D01*
X163643440Y-203966654D01*
X164168477Y-204184131D01*
X164725852Y-204295000D01*
X165294148Y-204295000D01*
X165851523Y-204184131D01*
X166376560Y-203966654D01*
X166849080Y-203650926D01*
X167250926Y-203249080D01*
X167566654Y-202776560D01*
X167784131Y-202251523D01*
X167834162Y-202000000D01*
X169361928Y-202000000D01*
X169374188Y-202124482D01*
X169410498Y-202244180D01*
X169469463Y-202354494D01*
X169548815Y-202451185D01*
X169645506Y-202530537D01*
X169755820Y-202589502D01*
X169875518Y-202625812D01*
X170000000Y-202638072D01*
X171964250Y-202635000D01*
X172123000Y-202476250D01*
X172123000Y-199877000D01*
X172377000Y-199877000D01*
X172377000Y-202476250D01*
X172535750Y-202635000D01*
X174500000Y-202638072D01*
X174624482Y-202625812D01*
X174744180Y-202589502D01*
X174854494Y-202530537D01*
X174951185Y-202451185D01*
X175030537Y-202354494D01*
X175089502Y-202244180D01*
X175125812Y-202124482D01*
X175138072Y-202000000D01*
X175136705Y-201125852D01*
X187125000Y-201125852D01*
X187125000Y-201694148D01*
X187235869Y-202251523D01*
X187453346Y-202776560D01*
X187769074Y-203249080D01*
X188170920Y-203650926D01*
X188643440Y-203966654D01*
X189168477Y-204184131D01*
X189725852Y-204295000D01*
X190294148Y-204295000D01*
X190851523Y-204184131D01*
X191376560Y-203966654D01*
X191849080Y-203650926D01*
X192250926Y-203249080D01*
X192566654Y-202776560D01*
X192784131Y-202251523D01*
X192834162Y-202000000D01*
X194361928Y-202000000D01*
X194374188Y-202124482D01*
X194410498Y-202244180D01*
X194469463Y-202354494D01*
X194548815Y-202451185D01*
X194645506Y-202530537D01*
X194755820Y-202589502D01*
X194875518Y-202625812D01*
X195000000Y-202638072D01*
X196964250Y-202635000D01*
X197123000Y-202476250D01*
X197123000Y-199877000D01*
X197377000Y-199877000D01*
X197377000Y-202476250D01*
X197535750Y-202635000D01*
X199500000Y-202638072D01*
X199624482Y-202625812D01*
X199744180Y-202589502D01*
X199854494Y-202530537D01*
X199951185Y-202451185D01*
X200030537Y-202354494D01*
X200089502Y-202244180D01*
X200125812Y-202124482D01*
X200138072Y-202000000D01*
X200136705Y-201125852D01*
X212125000Y-201125852D01*
X212125000Y-201694148D01*
X212235869Y-202251523D01*
X212453346Y-202776560D01*
X212769074Y-203249080D01*
X213170920Y-203650926D01*
X213643440Y-203966654D01*
X214168477Y-204184131D01*
X214725852Y-204295000D01*
X215294148Y-204295000D01*
X215851523Y-204184131D01*
X216376560Y-203966654D01*
X216849080Y-203650926D01*
X217250926Y-203249080D01*
X217566654Y-202776560D01*
X217784131Y-202251523D01*
X217834162Y-202000000D01*
X219361928Y-202000000D01*
X219374188Y-202124482D01*
X219410498Y-202244180D01*
X219469463Y-202354494D01*
X219548815Y-202451185D01*
X219645506Y-202530537D01*
X219755820Y-202589502D01*
X219875518Y-202625812D01*
X220000000Y-202638072D01*
X221964250Y-202635000D01*
X222123000Y-202476250D01*
X222123000Y-199877000D01*
X222377000Y-199877000D01*
X222377000Y-202476250D01*
X222535750Y-202635000D01*
X224500000Y-202638072D01*
X224624482Y-202625812D01*
X224744180Y-202589502D01*
X224854494Y-202530537D01*
X224951185Y-202451185D01*
X225030537Y-202354494D01*
X225089502Y-202244180D01*
X225125812Y-202124482D01*
X225138072Y-202000000D01*
X225136705Y-201125852D01*
X237125000Y-201125852D01*
X237125000Y-201694148D01*
X237235869Y-202251523D01*
X237453346Y-202776560D01*
X237769074Y-203249080D01*
X238170920Y-203650926D01*
X238643440Y-203966654D01*
X239168477Y-204184131D01*
X239725852Y-204295000D01*
X240294148Y-204295000D01*
X240851523Y-204184131D01*
X241376560Y-203966654D01*
X241849080Y-203650926D01*
X242250926Y-203249080D01*
X242566654Y-202776560D01*
X242784131Y-202251523D01*
X242834162Y-202000000D01*
X244361928Y-202000000D01*
X244374188Y-202124482D01*
X244410498Y-202244180D01*
X244469463Y-202354494D01*
X244548815Y-202451185D01*
X244645506Y-202530537D01*
X244755820Y-202589502D01*
X244875518Y-202625812D01*
X245000000Y-202638072D01*
X246964250Y-202635000D01*
X247123000Y-202476250D01*
X247123000Y-199877000D01*
X247377000Y-199877000D01*
X247377000Y-202476250D01*
X247535750Y-202635000D01*
X249500000Y-202638072D01*
X249624482Y-202625812D01*
X249744180Y-202589502D01*
X249854494Y-202530537D01*
X249951185Y-202451185D01*
X250030537Y-202354494D01*
X250089502Y-202244180D01*
X250125812Y-202124482D01*
X250138072Y-202000000D01*
X250135000Y-200035750D01*
X249976250Y-199877000D01*
X247377000Y-199877000D01*
X247123000Y-199877000D01*
X244523750Y-199877000D01*
X244365000Y-200035750D01*
X244361928Y-202000000D01*
X242834162Y-202000000D01*
X242895000Y-201694148D01*
X242895000Y-201125852D01*
X242784131Y-200568477D01*
X242566654Y-200043440D01*
X242250926Y-199570920D01*
X241849080Y-199169074D01*
X241376560Y-198853346D01*
X240851523Y-198635869D01*
X240294148Y-198525000D01*
X239725852Y-198525000D01*
X239168477Y-198635869D01*
X238643440Y-198853346D01*
X238170920Y-199169074D01*
X237769074Y-199570920D01*
X237453346Y-200043440D01*
X237235869Y-200568477D01*
X237125000Y-201125852D01*
X225136705Y-201125852D01*
X225135000Y-200035750D01*
X224976250Y-199877000D01*
X222377000Y-199877000D01*
X222123000Y-199877000D01*
X219523750Y-199877000D01*
X219365000Y-200035750D01*
X219361928Y-202000000D01*
X217834162Y-202000000D01*
X217895000Y-201694148D01*
X217895000Y-201125852D01*
X217784131Y-200568477D01*
X217566654Y-200043440D01*
X217250926Y-199570920D01*
X216849080Y-199169074D01*
X216376560Y-198853346D01*
X215851523Y-198635869D01*
X215294148Y-198525000D01*
X214725852Y-198525000D01*
X214168477Y-198635869D01*
X213643440Y-198853346D01*
X213170920Y-199169074D01*
X212769074Y-199570920D01*
X212453346Y-200043440D01*
X212235869Y-200568477D01*
X212125000Y-201125852D01*
X200136705Y-201125852D01*
X200135000Y-200035750D01*
X199976250Y-199877000D01*
X197377000Y-199877000D01*
X197123000Y-199877000D01*
X194523750Y-199877000D01*
X194365000Y-200035750D01*
X194361928Y-202000000D01*
X192834162Y-202000000D01*
X192895000Y-201694148D01*
X192895000Y-201125852D01*
X192784131Y-200568477D01*
X192566654Y-200043440D01*
X192250926Y-199570920D01*
X191849080Y-199169074D01*
X191376560Y-198853346D01*
X190851523Y-198635869D01*
X190294148Y-198525000D01*
X189725852Y-198525000D01*
X189168477Y-198635869D01*
X188643440Y-198853346D01*
X188170920Y-199169074D01*
X187769074Y-199570920D01*
X187453346Y-200043440D01*
X187235869Y-200568477D01*
X187125000Y-201125852D01*
X175136705Y-201125852D01*
X175135000Y-200035750D01*
X174976250Y-199877000D01*
X172377000Y-199877000D01*
X172123000Y-199877000D01*
X169523750Y-199877000D01*
X169365000Y-200035750D01*
X169361928Y-202000000D01*
X167834162Y-202000000D01*
X167895000Y-201694148D01*
X167895000Y-201125852D01*
X167784131Y-200568477D01*
X167566654Y-200043440D01*
X167250926Y-199570920D01*
X166849080Y-199169074D01*
X166376560Y-198853346D01*
X165851523Y-198635869D01*
X165294148Y-198525000D01*
X164725852Y-198525000D01*
X164168477Y-198635869D01*
X163643440Y-198853346D01*
X163170920Y-199169074D01*
X162769074Y-199570920D01*
X162453346Y-200043440D01*
X162235869Y-200568477D01*
X162125000Y-201125852D01*
X157660000Y-201125852D01*
X157660000Y-195225852D01*
X158225000Y-195225852D01*
X158225000Y-195794148D01*
X158335869Y-196351523D01*
X158553346Y-196876560D01*
X158869074Y-197349080D01*
X159270920Y-197750926D01*
X159743440Y-198066654D01*
X160268477Y-198284131D01*
X160825852Y-198395000D01*
X161394148Y-198395000D01*
X161951523Y-198284131D01*
X162476560Y-198066654D01*
X162949080Y-197750926D01*
X163200006Y-197500000D01*
X169361928Y-197500000D01*
X169365000Y-199464250D01*
X169523750Y-199623000D01*
X172123000Y-199623000D01*
X172123000Y-197023750D01*
X172377000Y-197023750D01*
X172377000Y-199623000D01*
X174976250Y-199623000D01*
X175135000Y-199464250D01*
X175138072Y-197500000D01*
X175125812Y-197375518D01*
X175089502Y-197255820D01*
X175030537Y-197145506D01*
X174951185Y-197048815D01*
X174854494Y-196969463D01*
X174744180Y-196910498D01*
X174624482Y-196874188D01*
X174500000Y-196861928D01*
X172535750Y-196865000D01*
X172377000Y-197023750D01*
X172123000Y-197023750D01*
X171964250Y-196865000D01*
X170000000Y-196861928D01*
X169875518Y-196874188D01*
X169755820Y-196910498D01*
X169645506Y-196969463D01*
X169548815Y-197048815D01*
X169469463Y-197145506D01*
X169410498Y-197255820D01*
X169374188Y-197375518D01*
X169361928Y-197500000D01*
X163200006Y-197500000D01*
X163350926Y-197349080D01*
X163666654Y-196876560D01*
X163884131Y-196351523D01*
X163995000Y-195794148D01*
X163995000Y-195225852D01*
X163884131Y-194668477D01*
X163666654Y-194143440D01*
X163350926Y-193670920D01*
X162949080Y-193269074D01*
X162476560Y-192953346D01*
X161951523Y-192735869D01*
X161394148Y-192625000D01*
X160825852Y-192625000D01*
X160268477Y-192735869D01*
X159743440Y-192953346D01*
X159270920Y-193269074D01*
X158869074Y-193670920D01*
X158553346Y-194143440D01*
X158335869Y-194668477D01*
X158225000Y-195225852D01*
X157660000Y-195225852D01*
X157660000Y-192225852D01*
X171025000Y-192225852D01*
X171025000Y-192794148D01*
X171135869Y-193351523D01*
X171353346Y-193876560D01*
X171669074Y-194349080D01*
X172070920Y-194750926D01*
X172543440Y-195066654D01*
X173068477Y-195284131D01*
X173625852Y-195395000D01*
X174194148Y-195395000D01*
X174751523Y-195284131D01*
X174892221Y-195225852D01*
X183225000Y-195225852D01*
X183225000Y-195794148D01*
X183335869Y-196351523D01*
X183553346Y-196876560D01*
X183869074Y-197349080D01*
X184270920Y-197750926D01*
X184743440Y-198066654D01*
X185268477Y-198284131D01*
X185825852Y-198395000D01*
X186394148Y-198395000D01*
X186951523Y-198284131D01*
X187476560Y-198066654D01*
X187949080Y-197750926D01*
X188200006Y-197500000D01*
X194361928Y-197500000D01*
X194365000Y-199464250D01*
X194523750Y-199623000D01*
X197123000Y-199623000D01*
X197123000Y-197023750D01*
X197377000Y-197023750D01*
X197377000Y-199623000D01*
X199976250Y-199623000D01*
X200135000Y-199464250D01*
X200138072Y-197500000D01*
X200125812Y-197375518D01*
X200089502Y-197255820D01*
X200030537Y-197145506D01*
X199951185Y-197048815D01*
X199854494Y-196969463D01*
X199744180Y-196910498D01*
X199624482Y-196874188D01*
X199500000Y-196861928D01*
X197535750Y-196865000D01*
X197377000Y-197023750D01*
X197123000Y-197023750D01*
X196964250Y-196865000D01*
X195000000Y-196861928D01*
X194875518Y-196874188D01*
X194755820Y-196910498D01*
X194645506Y-196969463D01*
X194548815Y-197048815D01*
X194469463Y-197145506D01*
X194410498Y-197255820D01*
X194374188Y-197375518D01*
X194361928Y-197500000D01*
X188200006Y-197500000D01*
X188350926Y-197349080D01*
X188666654Y-196876560D01*
X188884131Y-196351523D01*
X188995000Y-195794148D01*
X188995000Y-195225852D01*
X188884131Y-194668477D01*
X188666654Y-194143440D01*
X188350926Y-193670920D01*
X187949080Y-193269074D01*
X187476560Y-192953346D01*
X186951523Y-192735869D01*
X186394148Y-192625000D01*
X185825852Y-192625000D01*
X185268477Y-192735869D01*
X184743440Y-192953346D01*
X184270920Y-193269074D01*
X183869074Y-193670920D01*
X183553346Y-194143440D01*
X183335869Y-194668477D01*
X183225000Y-195225852D01*
X174892221Y-195225852D01*
X175276560Y-195066654D01*
X175749080Y-194750926D01*
X176150926Y-194349080D01*
X176466654Y-193876560D01*
X176684131Y-193351523D01*
X176795000Y-192794148D01*
X176795000Y-192225852D01*
X196025000Y-192225852D01*
X196025000Y-192794148D01*
X196135869Y-193351523D01*
X196353346Y-193876560D01*
X196669074Y-194349080D01*
X197070920Y-194750926D01*
X197543440Y-195066654D01*
X198068477Y-195284131D01*
X198625852Y-195395000D01*
X199194148Y-195395000D01*
X199751523Y-195284131D01*
X199892221Y-195225852D01*
X208225000Y-195225852D01*
X208225000Y-195794148D01*
X208335869Y-196351523D01*
X208553346Y-196876560D01*
X208869074Y-197349080D01*
X209270920Y-197750926D01*
X209743440Y-198066654D01*
X210268477Y-198284131D01*
X210825852Y-198395000D01*
X211394148Y-198395000D01*
X211951523Y-198284131D01*
X212476560Y-198066654D01*
X212949080Y-197750926D01*
X213200006Y-197500000D01*
X219361928Y-197500000D01*
X219365000Y-199464250D01*
X219523750Y-199623000D01*
X222123000Y-199623000D01*
X222123000Y-197023750D01*
X222377000Y-197023750D01*
X222377000Y-199623000D01*
X224976250Y-199623000D01*
X225135000Y-199464250D01*
X225138072Y-197500000D01*
X225125812Y-197375518D01*
X225089502Y-197255820D01*
X225030537Y-197145506D01*
X224951185Y-197048815D01*
X224854494Y-196969463D01*
X224744180Y-196910498D01*
X224624482Y-196874188D01*
X224500000Y-196861928D01*
X222535750Y-196865000D01*
X222377000Y-197023750D01*
X222123000Y-197023750D01*
X221964250Y-196865000D01*
X220000000Y-196861928D01*
X219875518Y-196874188D01*
X219755820Y-196910498D01*
X219645506Y-196969463D01*
X219548815Y-197048815D01*
X219469463Y-197145506D01*
X219410498Y-197255820D01*
X219374188Y-197375518D01*
X219361928Y-197500000D01*
X213200006Y-197500000D01*
X213350926Y-197349080D01*
X213666654Y-196876560D01*
X213884131Y-196351523D01*
X213995000Y-195794148D01*
X213995000Y-195225852D01*
X213884131Y-194668477D01*
X213666654Y-194143440D01*
X213350926Y-193670920D01*
X212949080Y-193269074D01*
X212476560Y-192953346D01*
X211951523Y-192735869D01*
X211394148Y-192625000D01*
X210825852Y-192625000D01*
X210268477Y-192735869D01*
X209743440Y-192953346D01*
X209270920Y-193269074D01*
X208869074Y-193670920D01*
X208553346Y-194143440D01*
X208335869Y-194668477D01*
X208225000Y-195225852D01*
X199892221Y-195225852D01*
X200276560Y-195066654D01*
X200749080Y-194750926D01*
X201150926Y-194349080D01*
X201466654Y-193876560D01*
X201684131Y-193351523D01*
X201795000Y-192794148D01*
X201795000Y-192225852D01*
X221025000Y-192225852D01*
X221025000Y-192794148D01*
X221135869Y-193351523D01*
X221353346Y-193876560D01*
X221669074Y-194349080D01*
X222070920Y-194750926D01*
X222543440Y-195066654D01*
X223068477Y-195284131D01*
X223625852Y-195395000D01*
X224194148Y-195395000D01*
X224751523Y-195284131D01*
X224892221Y-195225852D01*
X233225000Y-195225852D01*
X233225000Y-195794148D01*
X233335869Y-196351523D01*
X233553346Y-196876560D01*
X233869074Y-197349080D01*
X234270920Y-197750926D01*
X234743440Y-198066654D01*
X235268477Y-198284131D01*
X235825852Y-198395000D01*
X236394148Y-198395000D01*
X236951523Y-198284131D01*
X237476560Y-198066654D01*
X237949080Y-197750926D01*
X238200006Y-197500000D01*
X244361928Y-197500000D01*
X244365000Y-199464250D01*
X244523750Y-199623000D01*
X247123000Y-199623000D01*
X247123000Y-197023750D01*
X247377000Y-197023750D01*
X247377000Y-199623000D01*
X249976250Y-199623000D01*
X250135000Y-199464250D01*
X250138072Y-197500000D01*
X250125812Y-197375518D01*
X250089502Y-197255820D01*
X250030537Y-197145506D01*
X249951185Y-197048815D01*
X249854494Y-196969463D01*
X249744180Y-196910498D01*
X249624482Y-196874188D01*
X249500000Y-196861928D01*
X247535750Y-196865000D01*
X247377000Y-197023750D01*
X247123000Y-197023750D01*
X246964250Y-196865000D01*
X245000000Y-196861928D01*
X244875518Y-196874188D01*
X244755820Y-196910498D01*
X244645506Y-196969463D01*
X244548815Y-197048815D01*
X244469463Y-197145506D01*
X244410498Y-197255820D01*
X244374188Y-197375518D01*
X244361928Y-197500000D01*
X238200006Y-197500000D01*
X238350926Y-197349080D01*
X238666654Y-196876560D01*
X238884131Y-196351523D01*
X238995000Y-195794148D01*
X238995000Y-195225852D01*
X238884131Y-194668477D01*
X238666654Y-194143440D01*
X238350926Y-193670920D01*
X237949080Y-193269074D01*
X237476560Y-192953346D01*
X236951523Y-192735869D01*
X236394148Y-192625000D01*
X235825852Y-192625000D01*
X235268477Y-192735869D01*
X234743440Y-192953346D01*
X234270920Y-193269074D01*
X233869074Y-193670920D01*
X233553346Y-194143440D01*
X233335869Y-194668477D01*
X233225000Y-195225852D01*
X224892221Y-195225852D01*
X225276560Y-195066654D01*
X225749080Y-194750926D01*
X226150926Y-194349080D01*
X226466654Y-193876560D01*
X226684131Y-193351523D01*
X226795000Y-192794148D01*
X226795000Y-192225852D01*
X246025000Y-192225852D01*
X246025000Y-192794148D01*
X246135869Y-193351523D01*
X246353346Y-193876560D01*
X246669074Y-194349080D01*
X247070920Y-194750926D01*
X247543440Y-195066654D01*
X248068477Y-195284131D01*
X248625852Y-195395000D01*
X249194148Y-195395000D01*
X249751523Y-195284131D01*
X250276560Y-195066654D01*
X250749080Y-194750926D01*
X251150926Y-194349080D01*
X251466654Y-193876560D01*
X251684131Y-193351523D01*
X251795000Y-192794148D01*
X251795000Y-192225852D01*
X251684131Y-191668477D01*
X251466654Y-191143440D01*
X251150926Y-190670920D01*
X250749080Y-190269074D01*
X250276560Y-189953346D01*
X249751523Y-189735869D01*
X249194148Y-189625000D01*
X248625852Y-189625000D01*
X248068477Y-189735869D01*
X247543440Y-189953346D01*
X247070920Y-190269074D01*
X246669074Y-190670920D01*
X246353346Y-191143440D01*
X246135869Y-191668477D01*
X246025000Y-192225852D01*
X226795000Y-192225852D01*
X226684131Y-191668477D01*
X226466654Y-191143440D01*
X226150926Y-190670920D01*
X225749080Y-190269074D01*
X225276560Y-189953346D01*
X224751523Y-189735869D01*
X224194148Y-189625000D01*
X223625852Y-189625000D01*
X223068477Y-189735869D01*
X222543440Y-189953346D01*
X222070920Y-190269074D01*
X221669074Y-190670920D01*
X221353346Y-191143440D01*
X221135869Y-191668477D01*
X221025000Y-192225852D01*
X201795000Y-192225852D01*
X201684131Y-191668477D01*
X201466654Y-191143440D01*
X201150926Y-190670920D01*
X200749080Y-190269074D01*
X200276560Y-189953346D01*
X199751523Y-189735869D01*
X199194148Y-189625000D01*
X198625852Y-189625000D01*
X198068477Y-189735869D01*
X197543440Y-189953346D01*
X197070920Y-190269074D01*
X196669074Y-190670920D01*
X196353346Y-191143440D01*
X196135869Y-191668477D01*
X196025000Y-192225852D01*
X176795000Y-192225852D01*
X176684131Y-191668477D01*
X176466654Y-191143440D01*
X176150926Y-190670920D01*
X175749080Y-190269074D01*
X175276560Y-189953346D01*
X174751523Y-189735869D01*
X174194148Y-189625000D01*
X173625852Y-189625000D01*
X173068477Y-189735869D01*
X172543440Y-189953346D01*
X172070920Y-190269074D01*
X171669074Y-190670920D01*
X171353346Y-191143440D01*
X171135869Y-191668477D01*
X171025000Y-192225852D01*
X157660000Y-192225852D01*
X157660000Y-188325852D01*
X165125000Y-188325852D01*
X165125000Y-188894148D01*
X165235869Y-189451523D01*
X165453346Y-189976560D01*
X165769074Y-190449080D01*
X166170920Y-190850926D01*
X166643440Y-191166654D01*
X167168477Y-191384131D01*
X167725852Y-191495000D01*
X168294148Y-191495000D01*
X168851523Y-191384131D01*
X169376560Y-191166654D01*
X169849080Y-190850926D01*
X170250926Y-190449080D01*
X170566654Y-189976560D01*
X170784131Y-189451523D01*
X170895000Y-188894148D01*
X170895000Y-188325852D01*
X190125000Y-188325852D01*
X190125000Y-188894148D01*
X190235869Y-189451523D01*
X190453346Y-189976560D01*
X190769074Y-190449080D01*
X191170920Y-190850926D01*
X191643440Y-191166654D01*
X192168477Y-191384131D01*
X192725852Y-191495000D01*
X193294148Y-191495000D01*
X193851523Y-191384131D01*
X194376560Y-191166654D01*
X194849080Y-190850926D01*
X195250926Y-190449080D01*
X195566654Y-189976560D01*
X195784131Y-189451523D01*
X195895000Y-188894148D01*
X195895000Y-188325852D01*
X215125000Y-188325852D01*
X215125000Y-188894148D01*
X215235869Y-189451523D01*
X215453346Y-189976560D01*
X215769074Y-190449080D01*
X216170920Y-190850926D01*
X216643440Y-191166654D01*
X217168477Y-191384131D01*
X217725852Y-191495000D01*
X218294148Y-191495000D01*
X218851523Y-191384131D01*
X219376560Y-191166654D01*
X219849080Y-190850926D01*
X220250926Y-190449080D01*
X220566654Y-189976560D01*
X220784131Y-189451523D01*
X220895000Y-188894148D01*
X220895000Y-188325852D01*
X240125000Y-188325852D01*
X240125000Y-188894148D01*
X240235869Y-189451523D01*
X240453346Y-189976560D01*
X240769074Y-190449080D01*
X241170920Y-190850926D01*
X241643440Y-191166654D01*
X242168477Y-191384131D01*
X242725852Y-191495000D01*
X243294148Y-191495000D01*
X243851523Y-191384131D01*
X244376560Y-191166654D01*
X244849080Y-190850926D01*
X245250926Y-190449080D01*
X245566654Y-189976560D01*
X245784131Y-189451523D01*
X245895000Y-188894148D01*
X245895000Y-188325852D01*
X245784131Y-187768477D01*
X245566654Y-187243440D01*
X245250926Y-186770920D01*
X244849080Y-186369074D01*
X244376560Y-186053346D01*
X243851523Y-185835869D01*
X243294148Y-185725000D01*
X242725852Y-185725000D01*
X242168477Y-185835869D01*
X241643440Y-186053346D01*
X241170920Y-186369074D01*
X240769074Y-186770920D01*
X240453346Y-187243440D01*
X240235869Y-187768477D01*
X240125000Y-188325852D01*
X220895000Y-188325852D01*
X220784131Y-187768477D01*
X220566654Y-187243440D01*
X220250926Y-186770920D01*
X219849080Y-186369074D01*
X219376560Y-186053346D01*
X218851523Y-185835869D01*
X218294148Y-185725000D01*
X217725852Y-185725000D01*
X217168477Y-185835869D01*
X216643440Y-186053346D01*
X216170920Y-186369074D01*
X215769074Y-186770920D01*
X215453346Y-187243440D01*
X215235869Y-187768477D01*
X215125000Y-188325852D01*
X195895000Y-188325852D01*
X195784131Y-187768477D01*
X195566654Y-187243440D01*
X195250926Y-186770920D01*
X194849080Y-186369074D01*
X194376560Y-186053346D01*
X193851523Y-185835869D01*
X193294148Y-185725000D01*
X192725852Y-185725000D01*
X192168477Y-185835869D01*
X191643440Y-186053346D01*
X191170920Y-186369074D01*
X190769074Y-186770920D01*
X190453346Y-187243440D01*
X190235869Y-187768477D01*
X190125000Y-188325852D01*
X170895000Y-188325852D01*
X170784131Y-187768477D01*
X170566654Y-187243440D01*
X170250926Y-186770920D01*
X169849080Y-186369074D01*
X169376560Y-186053346D01*
X168851523Y-185835869D01*
X168294148Y-185725000D01*
X167725852Y-185725000D01*
X167168477Y-185835869D01*
X166643440Y-186053346D01*
X166170920Y-186369074D01*
X165769074Y-186770920D01*
X165453346Y-187243440D01*
X165235869Y-187768477D01*
X165125000Y-188325852D01*
X157660000Y-188325852D01*
X157660000Y-183353740D01*
X198355000Y-183353740D01*
X198355000Y-183646260D01*
X198412068Y-183933158D01*
X198524010Y-184203411D01*
X198686525Y-184446632D01*
X198893368Y-184653475D01*
X199136589Y-184815990D01*
X199406842Y-184927932D01*
X199693740Y-184985000D01*
X199986260Y-184985000D01*
X200273158Y-184927932D01*
X200543411Y-184815990D01*
X200786632Y-184653475D01*
X200993475Y-184446632D01*
X201110000Y-184272240D01*
X201226525Y-184446632D01*
X201433368Y-184653475D01*
X201676589Y-184815990D01*
X201946842Y-184927932D01*
X202233740Y-184985000D01*
X202526260Y-184985000D01*
X202813158Y-184927932D01*
X203083411Y-184815990D01*
X203326632Y-184653475D01*
X203533475Y-184446632D01*
X203650000Y-184272240D01*
X203766525Y-184446632D01*
X203973368Y-184653475D01*
X204216589Y-184815990D01*
X204486842Y-184927932D01*
X204773740Y-184985000D01*
X205066260Y-184985000D01*
X205353158Y-184927932D01*
X205623411Y-184815990D01*
X205866632Y-184653475D01*
X206073475Y-184446632D01*
X206190000Y-184272240D01*
X206306525Y-184446632D01*
X206513368Y-184653475D01*
X206756589Y-184815990D01*
X207026842Y-184927932D01*
X207313740Y-184985000D01*
X207606260Y-184985000D01*
X207893158Y-184927932D01*
X208163411Y-184815990D01*
X208406632Y-184653475D01*
X208538487Y-184521620D01*
X208560498Y-184594180D01*
X208619463Y-184704494D01*
X208698815Y-184801185D01*
X208795506Y-184880537D01*
X208905820Y-184939502D01*
X209025518Y-184975812D01*
X209150000Y-184988072D01*
X209714250Y-184985000D01*
X209873000Y-184826250D01*
X209873000Y-183627000D01*
X210127000Y-183627000D01*
X210127000Y-184826250D01*
X210285750Y-184985000D01*
X210850000Y-184988072D01*
X210974482Y-184975812D01*
X211094180Y-184939502D01*
X211204494Y-184880537D01*
X211301185Y-184801185D01*
X211380537Y-184704494D01*
X211439502Y-184594180D01*
X211475812Y-184474482D01*
X211488072Y-184350000D01*
X211485000Y-183785750D01*
X211326250Y-183627000D01*
X210127000Y-183627000D01*
X209873000Y-183627000D01*
X209853000Y-183627000D01*
X209853000Y-183373000D01*
X209873000Y-183373000D01*
X209873000Y-182173750D01*
X210127000Y-182173750D01*
X210127000Y-183373000D01*
X211326250Y-183373000D01*
X211485000Y-183214250D01*
X211488072Y-182650000D01*
X211475812Y-182525518D01*
X211439502Y-182405820D01*
X211380537Y-182295506D01*
X211301185Y-182198815D01*
X211204494Y-182119463D01*
X211094180Y-182060498D01*
X210974482Y-182024188D01*
X210850000Y-182011928D01*
X210285750Y-182015000D01*
X210127000Y-182173750D01*
X209873000Y-182173750D01*
X209714250Y-182015000D01*
X209150000Y-182011928D01*
X209025518Y-182024188D01*
X208905820Y-182060498D01*
X208795506Y-182119463D01*
X208698815Y-182198815D01*
X208619463Y-182295506D01*
X208560498Y-182405820D01*
X208538487Y-182478380D01*
X208406632Y-182346525D01*
X208163411Y-182184010D01*
X207893158Y-182072068D01*
X207606260Y-182015000D01*
X207313740Y-182015000D01*
X207026842Y-182072068D01*
X206756589Y-182184010D01*
X206513368Y-182346525D01*
X206306525Y-182553368D01*
X206190000Y-182727760D01*
X206073475Y-182553368D01*
X205866632Y-182346525D01*
X205623411Y-182184010D01*
X205353158Y-182072068D01*
X205066260Y-182015000D01*
X204773740Y-182015000D01*
X204486842Y-182072068D01*
X204216589Y-182184010D01*
X203973368Y-182346525D01*
X203766525Y-182553368D01*
X203650000Y-182727760D01*
X203533475Y-182553368D01*
X203326632Y-182346525D01*
X203083411Y-182184010D01*
X202813158Y-182072068D01*
X202526260Y-182015000D01*
X202233740Y-182015000D01*
X201946842Y-182072068D01*
X201676589Y-182184010D01*
X201433368Y-182346525D01*
X201226525Y-182553368D01*
X201110000Y-182727760D01*
X200993475Y-182553368D01*
X200786632Y-182346525D01*
X200543411Y-182184010D01*
X200273158Y-182072068D01*
X199986260Y-182015000D01*
X199693740Y-182015000D01*
X199406842Y-182072068D01*
X199136589Y-182184010D01*
X198893368Y-182346525D01*
X198686525Y-182553368D01*
X198524010Y-182796589D01*
X198412068Y-183066842D01*
X198355000Y-183353740D01*
X157660000Y-183353740D01*
X157660000Y-181660000D01*
X252340000Y-181660000D01*
X252340001Y-205340000D01*
M02*
